<svg width="426" height="400" viewBox="0 0 426 400" fill="none" xmlns="http://www.w3.org/2000/svg">
<path d="M242.5 399.5C343.789 399.5 425.9 388.621 425.9 375.2C425.9 361.78 343.789 350.9 242.5 350.9C141.211 350.9 59.1 361.78 59.1 375.2C59.1 388.621 141.211 399.5 242.5 399.5Z" fill="#4A56E2"/>
<path d="M54.4 372.7C83.7816 372.7 107.6 368.133 107.6 362.5C107.6 356.867 83.7816 352.3 54.4 352.3C25.0185 352.3 1.20001 356.867 1.20001 362.5C1.20001 368.133 25.0185 372.7 54.4 372.7Z" fill="#4A56E2"/>
<path d="M260 0.300049H99.6C90.6 0.300049 83.4 7.70005 83.4 16.8V347C83.4 356.1 90.7 363.5 99.6 363.5H260C269 363.5 276.2 356.1 276.2 347V16.8C276.2 7.70005 269 0.300049 260 0.300049ZM266.1 336.8C266.1 345.5 259.6 352.5 251.6 352.5H108.1C100.1 352.5 93.5 345.5 93.5 336.8V29.4001C93.5 11.7001 100 10.8 108.1 10.8H136.8C138.5 10.8 139.8 12.7 139.8 15.1V16.1C139.8 21.6 142.8 21.6 146.5 21.6H213C216.7 21.6 219.7 21.6 219.7 16.1V15.1C219.7 12.7 221 10.8 222.7 10.8H251.4C259.4 10.8 265.9 13.1001 265.9 29.4001V336.8H266.1Z" fill="#263238"/>
<path d="M266.1 32.4001V336.8C266.1 345.5 259.6 352.5 251.6 352.5H108.1C100.1 352.5 93.5 345.5 93.5 336.8V32.4001C93.5 14.7001 100 10.8 108.1 10.8H136.8C138.5 10.8 139.8 12.7 139.8 15.1V16.1C139.8 21.6 142.8 21.6 146.5 21.6H213C216.7 21.6 219.7 21.6 219.7 16.1V15.1C219.7 12.7 221 10.8 222.7 10.8H251.4C259.6 10.8 266.1 16.2001 266.1 32.4001Z" fill="white"/>
<path d="M188.9 14.7001H170.8C170.2 14.7001 169.7 14.2001 169.7 13.6001C169.7 13.0001 170.2 12.5001 170.8 12.5001H188.9C189.5 12.5001 190 13.0001 190 13.6001C190 14.2001 189.5 14.7001 188.9 14.7001Z" fill="white"/>
<path d="M189 181.6H168.1V184.3H189V181.6Z" fill="#C7C7C7"/>
<path d="M140.4 53.0001H112.4C107.982 53.0001 104.4 56.5818 104.4 61.0001V89.0001C104.4 93.4183 107.982 97.0001 112.4 97.0001H140.4C144.818 97.0001 148.4 93.4183 148.4 89.0001V61.0001C148.4 56.5818 144.818 53.0001 140.4 53.0001Z" fill="#FFD8D0"/>
<path d="M131.1 80.7L125.3 78.8C125.3 78.8 122.3 81.1 120.3 77.2C120.3 77.2 115.8 78.5 114.3 73.8C114.3 73.8 108.8 72.1 110.4 68.9C112 65.8 116.4 69.1 116.4 69.1C116.4 69.1 120.8 68.7 122.3 73.2C122.3 73.2 126.5 73.2 126.5 77.1L131.1 80.7Z" fill="#263238"/>
<path d="M113 70.1C114.6 70.9 116.1 71.7 117.6 72.6C119.1 73.4 120.7 74.3 122.2 75.2C123.7 76.1 125.2 77 126.7 77.9C128.2 78.8 129.7 79.7 131.1 80.8L130 80L128.9 79.3L126.6 78L122.1 75.4L117.6 72.8C116 71.9 114.5 71 113 70.1Z" fill="white"/>
<path d="M131.4 80.5001L131.5 74.4001C131.5 74.4001 134.6 72.3001 131.6 69.2001C131.6 69.2001 134.3 65.4001 130.3 62.5001C130.3 62.5001 130.5 56.7001 127 57.2001C123.5 57.7001 125.2 62.9001 125.2 62.9001C125.2 62.9001 123.4 66.9001 127.2 69.9001C127.2 69.9001 125.8 73.9001 129.5 75.1001L131.4 80.5001Z" fill="#263238"/>
<path d="M127.3 59.9001C127.7 61.6001 128 63.3001 128.3 65.0001L129.3 70.2001L130.3 75.4001L130.8 78.0001L131.1 79.3001L131.4 80.6001C130.9 78.9001 130.5 77.2001 130.1 75.5001C129.7 73.8001 129.4 72.1001 129 70.4001C128.7 68.7001 128.3 67.0001 128 65.2001C127.8 63.4001 127.6 61.6001 127.3 59.9001Z" fill="white"/>
<path d="M131.8 81.4001L126.1 75.5001C126.1 75.5001 121.3 76.7001 120.9 71.0001C120.9 71.0001 114.7 70.2001 115.5 63.7001C115.5 63.7001 109.7 58.7001 113.3 55.7001C116.9 52.8001 120.5 59.1001 120.5 59.1001C120.5 59.1001 126 61.0001 125.5 67.2001C125.5 67.2001 130.6 69.4001 128.6 74.1001L131.8 81.4001Z" fill="#455A64"/>
<path d="M117 58.9001C118.4 60.6001 119.8 62.4001 121.1 64.3001C121.4 64.8001 121.8 65.2001 122.1 65.7001L123.1 67.1001C123.4 67.6001 123.7 68.0001 124 68.5001C124.3 69.0001 124.6 69.4001 124.9 69.9001C125.5 70.8001 126.1 71.8001 126.7 72.7001L127.6 74.1001L128 74.8001L128.4 75.5001C129.6 77.4001 130.6 79.4001 131.7 81.4001L131.3 80.7001L130.9 80.0001L130.5 79.3001L130.1 78.6001L129.2 77.2001L128.3 75.8001C127.1 73.9001 125.9 72.0001 124.7 70.1001C124.1 69.2001 123.5 68.2001 122.8 67.3001L121.9 65.9001L120.9 64.5001C120.3 63.6001 119.6 62.7001 119 61.7001C118.3 60.7001 117.6 59.8001 117 58.9001Z" fill="white"/>
<path d="M140.9 81.3001C141 81.4001 141.1 81.6001 141.2 81.7001C144 86.1001 140.3 89.5001 140.2 91.1001C140.1 92.7001 141.3 93.7001 140.6 94.3001C139.9 94.8001 139.3 93.3001 137.7 92.9001C136.5 92.6001 133.3 94.0001 130.5 92.5001C130.3 92.4001 130 92.2001 129.8 92.1001C129.3 91.8001 128.9 91.4001 128.5 90.8001C128.4 90.7001 128.3 90.5001 128.2 90.4001C128.1 90.3001 128.1 90.3001 128 90.2001C126.8 88.4001 126.3 86.7001 126.4 85.2001C126.4 84.9001 126.5 84.5001 126.5 84.2001C126.9 82.2001 128.1 80.6001 129.8 79.4001C132.5 77.5001 136.1 77.0001 139 79.5001C139.2 79.7001 139.4 79.8001 139.6 80.0001C140 80.4001 140.3 80.8001 140.7 81.2001C140.8 81.2001 140.9 81.2001 140.9 81.3001Z" fill="white"/>
<path d="M133.8 89.2001L134.2 89.8001L130.5 92.5001C130.3 92.4001 130 92.2001 129.8 92.1001L133.8 89.2001Z" fill="#DBDBDB"/>
<path d="M130.7 88.3001L131.1 88.9001L128.5 90.7001C128.4 90.6001 128.3 90.4001 128.2 90.3001C128.1 90.2001 128.1 90.2001 128 90.1001L130.7 88.3001Z" fill="#DBDBDB"/>
<path d="M140.9 81.3001C141 81.4001 141.1 81.6001 141.2 81.7001L138.6 83.5001L138.2 82.9001L140.8 81.1001C140.8 81.2001 140.9 81.2001 140.9 81.3001Z" fill="#DBDBDB"/>
<path d="M139.7 79.9001L137.9 81.2001L137.5 80.6001L139.2 79.4001C139.3 79.5001 139.5 79.7001 139.7 79.9001Z" fill="#DBDBDB"/>
<path d="M128.6 82.6001L129 83.2001L126.4 85.0001C126.4 84.7001 126.5 84.3001 126.5 84.0001L128.6 82.6001Z" fill="#DBDBDB"/>
<path d="M118.3 100.6C118.4 100.6 118.5 100.7 118.5 100.8V101.1C119.1 101.1 119.5 101.3 119.9 101.7C120 101.8 120 101.8 120 101.9C120 102 119.9 102.1 119.8 102.1C119.8 102.1 119.7 102.1 119.7 102C119.3 101.7 118.9 101.5 118.5 101.5V103.7C119.7 104 120.2 104.4 120.2 105.2C120.2 106 119.5 106.6 118.5 106.7V107.3C118.5 107.4 118.4 107.5 118.3 107.5C118.2 107.5 118.1 107.4 118.1 107.3V106.7C117.4 106.6 116.8 106.4 116.3 105.9C116.2 105.9 116.2 105.8 116.2 105.7C116.2 105.6 116.3 105.5 116.4 105.5C116.5 105.5 116.5 105.5 116.5 105.6C116.9 106 117.4 106.3 118.1 106.3V104C116.9 103.7 116.4 103.3 116.4 102.5C116.4 101.7 117.1 101.1 118.1 101.1V100.8C118.2 100.6 118.2 100.6 118.3 100.6ZM118.2 103.6V101.4C117.4 101.4 116.9 101.9 116.9 102.5C116.9 103 117.1 103.3 118.2 103.6ZM118.5 104.1V106.3C119.3 106.3 119.8 105.8 119.8 105.2C119.8 104.6 119.6 104.3 118.5 104.1Z" fill="#A6A6A6"/>
<path d="M121.3 106.3L123.9 103.9C124.2 103.6 124.4 103.2 124.4 102.8C124.4 102.5 124.3 102.1 124 101.8C123.7 101.5 123.3 101.3 122.9 101.3C122.5 101.3 122.2 101.4 121.9 101.7L121.6 101.9C121.5 102 121.4 102 121.3 101.9C121.2 101.8 121.2 101.7 121.3 101.6L121.6 101.3C122 101 122.4 100.8 122.8 100.8C123.3 100.8 123.8 101 124.1 101.4C124.4 101.8 124.6 102.2 124.6 102.6C124.6 103.1 124.4 103.6 124 104L121.8 106H124.4C124.5 106 124.6 106.1 124.6 106.2C124.6 106.3 124.5 106.4 124.4 106.4H121.3C121.2 106.4 121.2 106.4 121.2 106.3C121.2 106.5 121.2 106.4 121.3 106.3Z" fill="#A6A6A6"/>
<path d="M126.6 105.8C126.8 105.8 127 106 127 106.2C127 106.4 126.8 106.6 126.6 106.6C126.4 106.6 126.2 106.4 126.2 106.2C126.2 106 126.4 105.8 126.6 105.8Z" fill="#A6A6A6"/>
<path d="M128 106.1C127.9 106 127.9 105.9 128 105.8C128.1 105.7 128.2 105.7 128.3 105.8C128.6 106.1 129 106.2 129.4 106.2C129.8 106.2 130.2 106.1 130.5 105.8C130.8 105.5 130.9 105.1 130.9 104.7C130.9 104.3 130.8 103.9 130.5 103.6C130.2 103.3 129.8 103.2 129.4 103.2C129 103.2 128.6 103.3 128.3 103.6C128.2 103.7 128.1 103.7 128 103.6C128 103.6 128 103.6 128 103.5C128 103.5 128 103.5 128 103.4L128.3 101.1C128.3 101 128.3 101 128.4 101H128.5H131.1C131.2 101 131.3 101.1 131.3 101.2C131.3 101.3 131.2 101.4 131.1 101.4H128.7L128.5 103.1C128.8 102.9 129.1 102.8 129.5 102.8C130 102.8 130.5 103 130.8 103.4C131.2 103.8 131.4 104.2 131.4 104.7C131.4 105.2 131.2 105.7 130.8 106C130.4 106.4 129.9 106.6 129.5 106.6C128.8 106.6 128.3 106.5 128 106.1Z" fill="#A6A6A6"/>
<path d="M132.8 103.8C132.8 103 133 102.4 133.3 101.8C133.6 101.3 134.1 101 134.7 101C135.3 101 135.8 101.3 136.1 101.8C136.4 102.3 136.6 103 136.6 103.8C136.6 104.6 136.4 105.2 136.1 105.8C135.8 106.3 135.3 106.6 134.7 106.6C134.1 106.6 133.6 106.3 133.3 105.8C132.9 105.3 132.8 104.6 132.8 103.8ZM133.1 103.8C133.1 104.5 133.3 105.1 133.6 105.5C133.9 105.9 134.3 106.2 134.7 106.2C135.1 106.2 135.5 106 135.8 105.5C136.1 105.1 136.3 104.5 136.3 103.8C136.3 103.1 136.1 102.5 135.8 102.1C135.5 101.7 135.1 101.4 134.7 101.4C134.3 101.4 133.9 101.6 133.6 102.1C133.3 102.5 133.1 103.2 133.1 103.8Z" fill="#A6A6A6"/>
<path d="M192.4 53.0001H164.4C159.982 53.0001 156.4 56.5818 156.4 61.0001V89.0001C156.4 93.4183 159.982 97.0001 164.4 97.0001H192.4C196.818 97.0001 200.4 93.4183 200.4 89.0001V61.0001C200.4 56.5818 196.818 53.0001 192.4 53.0001Z" fill="#FFD8D0"/>
<path d="M186.1 80.9C191.7 86.6 197.3 92.5 197.3 92.5C197 94 195.3 94.4 195.3 94.4C195.3 94.4 189.5 88.5 184 83C183.8 82.8 183.6 82.6 183.4 82.4C183.3 82.3 183.1 82.1 183 82C182.6 81.6 182.2 81.2 181.8 80.8C181.7 80.7 181.5 80.5 181.4 80.4C180.6 79.6 179.8 78.8 179.1 78C179 77.9 178.8 77.7 178.7 77.6C176.4 75.3 174.7 73.6 174.2 73C171.7 70.4 159.4 65.1 159.4 65.1C159.4 65.1 158.4 64.4 159.7 62.7C159.7 62.7 164.5 65 168.9 67.2L158.5 60.6C158.5 60.6 158.4 59.6 159.4 58.8L165.3 62.7L160 57.6C160 57.6 160.1 56.8 161.6 56.1L170.8 65.6L164.3 57C164.3 57 165 56.1 165.9 55.8C165.9 55.8 169.9 61.9 175.6 69.4L169.7 59.3C169.7 59.3 170.2 58.6 171.3 58.5C171.3 58.5 176 69.6 180.9 75.3C181 75.4 181.1 75.6 181.3 75.7C181.5 75.9 181.7 76.1 181.8 76.3C182.4 76.9 183 77.5 183.6 78.1C183.7 78.2 183.9 78.4 184 78.5C184.4 78.9 184.8 79.3 185.2 79.7C185.3 79.8 185.5 80 185.6 80.1C185.7 80.5 185.9 80.7 186.1 80.9Z" fill="white"/>
<path d="M171.2 58.8C171.2 58.8 175.9 69.9 180.8 75.6L178.7 77.6C176.4 75.3 174.7 73.6 174.2 73C171.7 70.4 159.4 65.1 159.4 65.1C159.4 65.1 158.4 64.4 159.7 62.7C159.7 62.7 164.5 65 168.9 67.2L158.5 60.6C158.5 60.6 158.4 59.6 159.4 58.8L165.3 62.7L160 57.6C160 57.6 160.1 56.8 161.6 56.1L170.8 65.6L164.3 57C164.3 57 165 56.1 165.9 55.8C165.9 55.8 169.9 61.9 175.6 69.4L169.7 59.3C169.6 59.6 170 58.9 171.2 58.8Z" fill="#455A64"/>
<path d="M183.5 78.4001L181.4 80.4001C180.6 79.6001 179.8 78.8001 179.1 78.0001L181.2 76.0001C181.4 76.2001 181.6 76.4001 181.7 76.6001C182.3 77.2001 182.9 77.8001 183.5 78.4001Z" fill="#455A64"/>
<path d="M185.1 79.9001L183 81.9001C182.6 81.5001 182.2 81.1001 181.8 80.7001L183.9 78.7001C184.3 79.2001 184.7 79.5001 185.1 79.9001Z" fill="#455A64"/>
<path d="M186.1 80.9L184 82.9C183.8 82.7 183.6 82.5 183.4 82.3L185.5 80.3C185.7 80.5 185.9 80.7 186.1 80.9Z" fill="#455A64"/>
<path d="M170.8 100.6C170.9 100.6 171 100.7 171 100.8V101.1C171.6 101.1 172 101.3 172.4 101.7C172.5 101.8 172.5 101.8 172.5 101.9C172.5 102 172.4 102.1 172.3 102.1C172.3 102.1 172.2 102.1 172.2 102C171.8 101.7 171.4 101.5 171 101.5V103.7C172.2 104 172.7 104.4 172.7 105.2C172.7 106 172 106.6 171 106.7V107.3C171 107.4 170.9 107.5 170.8 107.5C170.7 107.5 170.6 107.4 170.6 107.3V106.7C169.9 106.6 169.3 106.4 168.8 105.9C168.7 105.9 168.7 105.8 168.7 105.7C168.7 105.6 168.8 105.5 168.9 105.5C169 105.5 169 105.5 169 105.6C169.4 106 169.9 106.3 170.6 106.3V104C169.4 103.7 168.9 103.3 168.9 102.5C168.9 101.7 169.6 101.1 170.6 101.1V100.8C170.6 100.6 170.6 100.6 170.8 100.6ZM170.6 103.6V101.4C169.8 101.4 169.3 101.9 169.3 102.5C169.3 103 169.5 103.3 170.6 103.6ZM170.9 104.1V106.3C171.7 106.3 172.2 105.8 172.2 105.2C172.2 104.6 172 104.3 170.9 104.1Z" fill="#A6A6A6"/>
<path d="M174.6 101.6L173.8 102.1H173.7C173.6 102.1 173.6 102.1 173.5 102C173.4 101.9 173.5 101.8 173.6 101.7L174.7 101C174.8 101 174.9 101 175 101.1V101.2V106.3C175 106.4 174.9 106.5 174.8 106.5C174.7 106.5 174.6 106.4 174.6 106.3V101.6Z" fill="#A6A6A6"/>
<path d="M177 105.8C177.2 105.8 177.4 106 177.4 106.2C177.4 106.4 177.2 106.6 177 106.6C176.8 106.6 176.6 106.4 176.6 106.2C176.6 106 176.8 105.8 177 105.8Z" fill="#A6A6A6"/>
<path d="M178.1 103.8C178.1 103 178.3 102.4 178.6 101.8C178.9 101.3 179.4 101 180 101C180.6 101 181.1 101.3 181.4 101.8C181.7 102.3 181.9 103 181.9 103.8C181.9 104.6 181.7 105.2 181.4 105.8C181.1 106.3 180.6 106.6 180 106.6C179.4 106.6 178.9 106.3 178.6 105.8C178.3 105.3 178.1 104.6 178.1 103.8ZM178.5 103.8C178.5 104.5 178.7 105.1 179 105.5C179.3 105.9 179.7 106.2 180.1 106.2C180.5 106.2 180.9 106 181.2 105.5C181.5 105.1 181.7 104.5 181.7 103.8C181.7 103.1 181.5 102.5 181.2 102.1C180.9 101.7 180.5 101.4 180.1 101.4C179.7 101.4 179.3 101.6 179 102.1C178.7 102.5 178.5 103.2 178.5 103.8Z" fill="#A6A6A6"/>
<path d="M183.8 103.8C183.8 103 184 102.4 184.3 101.8C184.6 101.3 185.1 101 185.7 101C186.3 101 186.8 101.3 187.1 101.8C187.4 102.3 187.6 103 187.6 103.8C187.6 104.6 187.4 105.2 187.1 105.8C186.8 106.3 186.3 106.6 185.7 106.6C185.1 106.6 184.6 106.3 184.3 105.8C184 105.3 183.8 104.6 183.8 103.8ZM184.2 103.8C184.2 104.5 184.4 105.1 184.7 105.5C185 105.9 185.4 106.2 185.8 106.2C186.2 106.2 186.6 106 186.9 105.5C187.2 105.1 187.4 104.5 187.4 103.8C187.4 103.1 187.2 102.5 186.9 102.1C186.6 101.7 186.2 101.4 185.8 101.4C185.4 101.4 185 101.6 184.7 102.1C184.4 102.5 184.2 103.2 184.2 103.8Z" fill="#A6A6A6"/>
<path d="M244.3 53.0001H216.3C211.882 53.0001 208.3 56.5818 208.3 61.0001V89.0001C208.3 93.4183 211.882 97.0001 216.3 97.0001H244.3C248.718 97.0001 252.3 93.4183 252.3 89.0001V61.0001C252.3 56.5818 248.718 53.0001 244.3 53.0001Z" fill="#FFD8D0"/>
<path d="M217.2 80.3001C220.6 91.5001 231.2 90.1001 234.2 89.2001C237.2 88.3001 246.7 83.6001 243.3 72.3001C239.9 61.1001 228.6 63.7001 226.6 64.3001C224.3 65.0001 213.8 69.1001 217.2 80.3001Z" fill="white"/>
<path d="M227.6 65.9001C227.6 65.9001 228.1 70.1001 235.5 67.6001C235.4 67.6001 230.4 62.2001 227.6 65.9001Z" fill="#455A64"/>
<path d="M228.3 67.6001C228.3 67.6001 231.8 67.8001 230.8 61.5001C230.8 61.5001 225.8 64.8001 228.3 67.6001Z" fill="#455A64"/>
<path d="M228 66.5001C228 66.5001 226.8 69.8001 221.4 66.3001C221.4 66.3001 226.5 63.0001 228 66.5001Z" fill="#455A64"/>
<path d="M227.8 65.7001C227.8 65.7001 224.6 68.4001 230.8 73.2001C230.8 73.1001 232.4 66.0001 227.8 65.7001Z" fill="#455A64"/>
<path d="M227.4 66.3001C227.4 66.3001 222.7 65.0001 223.3 73.0001C223.4 73.0001 230.5 70.5001 227.4 66.3001Z" fill="#455A64"/>
<path d="M228.2 67.3001C228.2 67.3001 228.8 63.1001 225.3 60.2001C225.3 60.2001 223.3 60.2001 222.8 62.3001C222.8 62.3001 226.8 64.5001 227.1 68.2001L228 67.6001" fill="#263238"/>
<path d="M222.8 100.6C222.9 100.6 223 100.7 223 100.8V101.1C223.6 101.1 224 101.3 224.4 101.7C224.5 101.8 224.5 101.8 224.5 101.9C224.5 102 224.4 102.1 224.3 102.1C224.3 102.1 224.2 102.1 224.2 102C223.8 101.7 223.4 101.5 223 101.5V103.7C224.2 104 224.7 104.4 224.7 105.2C224.7 106 224 106.6 223 106.7V107.3C223 107.4 222.9 107.5 222.8 107.5C222.7 107.5 222.6 107.4 222.6 107.3V106.7C221.9 106.6 221.3 106.4 220.8 105.9C220.7 105.9 220.7 105.8 220.7 105.7C220.7 105.6 220.8 105.5 220.9 105.5C221 105.5 221 105.5 221 105.6C221.4 106 221.9 106.3 222.6 106.3V104C221.4 103.7 220.9 103.3 220.9 102.5C220.9 101.7 221.6 101.1 222.6 101.1V100.8C222.6 100.6 222.7 100.6 222.8 100.6ZM222.6 103.6V101.4C221.8 101.4 221.3 101.9 221.3 102.5C221.4 103 221.6 103.3 222.6 103.6ZM223 104.1V106.3C223.8 106.3 224.3 105.8 224.3 105.2C224.3 104.6 224 104.3 223 104.1Z" fill="#A6A6A6"/>
<path d="M226.7 101.6L225.9 102.1H225.8C225.7 102.1 225.7 102.1 225.6 102C225.5 101.9 225.6 101.8 225.7 101.7L226.8 101C226.9 101 227 101 227.1 101.1V101.2V106.3C227.1 106.4 227 106.5 226.9 106.5C226.8 106.5 226.7 106.4 226.7 106.3V101.6Z" fill="#A6A6A6"/>
<path d="M229 105.8C229.2 105.8 229.4 106 229.4 106.2C229.4 106.4 229.2 106.6 229 106.6C228.8 106.6 228.6 106.4 228.6 106.2C228.6 106 228.8 105.8 229 105.8Z" fill="#A6A6A6"/>
<path d="M230.4 106.1C230.3 106 230.3 105.9 230.4 105.8C230.5 105.7 230.6 105.7 230.7 105.8C231 106.1 231.4 106.2 231.8 106.2C232.2 106.2 232.6 106.1 232.9 105.8C233.2 105.5 233.3 105.1 233.3 104.7C233.3 104.3 233.2 103.9 232.9 103.6C232.6 103.3 232.2 103.2 231.8 103.2C231.4 103.2 231 103.3 230.7 103.6C230.6 103.7 230.5 103.7 230.4 103.6C230.4 103.6 230.4 103.6 230.4 103.5C230.4 103.5 230.4 103.5 230.4 103.4L230.7 101.1C230.7 101 230.7 101 230.8 101H230.9H233.5C233.6 101 233.7 101.1 233.7 101.2C233.7 101.3 233.6 101.4 233.5 101.4H231L230.8 103.1C231.1 102.9 231.4 102.8 231.8 102.8C232.3 102.8 232.8 103 233.1 103.4C233.5 103.8 233.7 104.2 233.7 104.7C233.7 105.2 233.5 105.7 233.1 106C232.7 106.4 232.2 106.6 231.8 106.6C231.2 106.6 230.8 106.5 230.4 106.1Z" fill="#A6A6A6"/>
<path d="M235.2 103.8C235.2 103 235.4 102.4 235.7 101.8C236 101.3 236.5 101 237.1 101C237.7 101 238.2 101.3 238.5 101.8C238.8 102.3 239 103 239 103.8C239 104.6 238.8 105.2 238.5 105.8C238.2 106.3 237.7 106.6 237.1 106.6C236.5 106.6 236 106.3 235.7 105.8C235.4 105.3 235.2 104.6 235.2 103.8ZM235.6 103.8C235.6 104.5 235.8 105.1 236.1 105.5C236.4 105.9 236.8 106.2 237.2 106.2C237.6 106.2 238 106 238.3 105.5C238.6 105.1 238.8 104.5 238.8 103.8C238.8 103.1 238.6 102.5 238.3 102.1C238 101.7 237.6 101.4 237.2 101.4C236.8 101.4 236.4 101.6 236.1 102.1C235.8 102.5 235.6 103.2 235.6 103.8Z" fill="#A6A6A6"/>
<path d="M140.4 117.2H112.4C107.982 117.2 104.4 120.782 104.4 125.2V153.2C104.4 157.618 107.982 161.2 112.4 161.2H140.4C144.818 161.2 148.4 157.618 148.4 153.2V125.2C148.4 120.782 144.818 117.2 140.4 117.2Z" fill="#FFD8D0"/>
<path d="M138.6 135.4V157.1C138.6 158.4 135.9 159.2 126.8 159.2C117.7 159.2 115.1 158.4 115.1 157.1V135.4C115.1 129.6 121.5 125.9 121.5 124.7C121.5 123.5 121.5 120.3 121.5 120.3H132.2C132.2 120.3 132.2 123.5 132.2 124.7C132.2 125.9 138.6 129.6 138.6 135.4Z" fill="white"/>
<path d="M132.9 118.4H120.9V122.1H132.9V118.4Z" fill="#37474F"/>
<path d="M138.6 141.2H115.1V152.9H138.6V141.2Z" fill="#37474F"/>
<path d="M117.9 165.1C118 165.1 118.1 165.2 118.1 165.3V165.6C118.7 165.6 119.1 165.8 119.5 166.2C119.6 166.3 119.6 166.3 119.6 166.4C119.6 166.5 119.5 166.6 119.4 166.6C119.4 166.6 119.3 166.6 119.3 166.5C118.9 166.2 118.5 166 118.1 166V168.2C119.3 168.5 119.8 168.9 119.8 169.7C119.8 170.5 119.1 171.1 118.1 171.2V171.8C118.1 171.9 118 172 117.9 172C117.8 172 117.7 171.9 117.7 171.8V171.2C117 171.1 116.4 170.9 115.9 170.4C115.8 170.4 115.8 170.3 115.8 170.2C115.8 170.1 115.9 170 116 170C116.1 170 116.1 170 116.1 170.1C116.5 170.5 117 170.8 117.7 170.8V168.5C116.5 168.2 116 167.8 116 167C116 166.2 116.7 165.6 117.7 165.6V165.3C117.7 165.2 117.8 165.1 117.9 165.1ZM117.8 168.1V165.9C117 165.9 116.5 166.4 116.5 167C116.5 167.5 116.7 167.9 117.8 168.1ZM118.1 168.6V170.8C118.9 170.8 119.4 170.3 119.4 169.7C119.4 169.2 119.1 168.8 118.1 168.6Z" fill="#A6A6A6"/>
<path d="M124.2 165.9L122.8 167.4C123.2 167.5 123.5 167.6 123.8 167.9C124.2 168.3 124.4 168.8 124.4 169.2C124.4 169.7 124.2 170.2 123.8 170.5C123.4 170.9 122.9 171.1 122.5 171.1C122 171.1 121.5 170.9 121.2 170.5C121.1 170.4 121.1 170.3 121.2 170.2C121.3 170.1 121.4 170.1 121.5 170.2C121.8 170.5 122.2 170.6 122.6 170.6C123 170.6 123.4 170.5 123.7 170.2C124 169.9 124.1 169.5 124.1 169.1C124.1 168.7 124 168.3 123.7 168C123.4 167.7 123 167.6 122.6 167.6C122.5 167.6 122.5 167.6 122.4 167.5C122.3 167.4 122.3 167.3 122.4 167.2L123.8 165.8H121.7C121.6 165.8 121.5 165.7 121.5 165.6C121.5 165.5 121.6 165.4 121.7 165.4H124.3C124.4 165.4 124.5 165.5 124.5 165.6C124.3 165.8 124.3 165.8 124.2 165.9C124.3 165.9 124.3 165.9 124.2 165.9Z" fill="#A6A6A6"/>
<path d="M126.4 170.4C126.6 170.4 126.8 170.6 126.8 170.8C126.8 171 126.6 171.2 126.4 171.2C126.2 171.2 126 171 126 170.8C126 170.5 126.1 170.4 126.4 170.4Z" fill="#A6A6A6"/>
<path d="M127.5 168.4C127.5 167.6 127.7 167 128 166.4C128.3 165.9 128.8 165.6 129.4 165.6C130 165.6 130.5 165.9 130.8 166.4C131.1 166.9 131.3 167.6 131.3 168.4C131.3 169.2 131.1 169.8 130.8 170.4C130.5 170.9 130 171.2 129.4 171.2C128.8 171.2 128.3 170.9 128 170.4C127.7 169.8 127.5 169.1 127.5 168.4ZM127.9 168.4C127.9 169.1 128.1 169.7 128.4 170.1C128.7 170.5 129.1 170.8 129.5 170.8C129.9 170.8 130.3 170.6 130.6 170.1C130.9 169.7 131.1 169.1 131.1 168.4C131.1 167.7 130.9 167.1 130.6 166.7C130.3 166.3 129.9 166 129.5 166C129.1 166 128.7 166.2 128.4 166.7C128.1 167.1 127.9 167.7 127.9 168.4Z" fill="#A6A6A6"/>
<path d="M133.2 168.4C133.2 167.6 133.4 167 133.7 166.4C134 165.9 134.5 165.6 135.1 165.6C135.7 165.6 136.2 165.9 136.5 166.4C136.8 166.9 137 167.6 137 168.4C137 169.2 136.8 169.8 136.5 170.4C136.2 170.9 135.7 171.2 135.1 171.2C134.5 171.2 134 170.9 133.7 170.4C133.4 169.8 133.2 169.1 133.2 168.4ZM133.6 168.4C133.6 169.1 133.8 169.7 134.1 170.1C134.4 170.5 134.8 170.8 135.2 170.8C135.6 170.8 136 170.6 136.3 170.1C136.6 169.7 136.8 169.1 136.8 168.4C136.8 167.7 136.6 167.1 136.3 166.7C136 166.3 135.6 166 135.2 166C134.8 166 134.4 166.2 134.1 166.7C133.8 167.1 133.6 167.7 133.6 168.4Z" fill="#A6A6A6"/>
<path d="M192.4 117.2H164.4C159.982 117.2 156.4 120.782 156.4 125.2V153.2C156.4 157.618 159.982 161.2 164.4 161.2H192.4C196.818 161.2 200.4 157.618 200.4 153.2V125.2C200.4 120.782 196.818 117.2 192.4 117.2Z" fill="#FFD8D0"/>
<path d="M187.7 126.7H169.4V159.2H187.7V126.7Z" fill="white"/>
<path d="M187.7 126.7H169.4V159.2H187.7V126.7Z" fill="white"/>
<path d="M187.7 138.7H169.4V152.4H187.7V138.7Z" fill="#455A64"/>
<path d="M187.7 126.7H169.4L171.7 122.2H185.5L187.7 126.7Z" fill="white"/>
<path d="M187.7 126.7H169.4L171.7 122.2H185.5L187.7 126.7Z" fill="#DBDBDB"/>
<path d="M185.4 118.4H171.6V122.2H185.4V118.4Z" fill="white"/>
<path d="M170.1 165.1C170.2 165.1 170.3 165.2 170.3 165.3V165.6C170.9 165.6 171.3 165.8 171.7 166.2C171.8 166.3 171.8 166.3 171.8 166.4C171.8 166.5 171.7 166.6 171.6 166.6C171.6 166.6 171.5 166.6 171.5 166.5C171.1 166.2 170.7 166 170.3 166V168.2C171.5 168.5 172 168.9 172 169.7C172 170.5 171.3 171.1 170.3 171.2V171.8C170.3 171.9 170.2 172 170.1 172C170 172 169.9 171.9 169.9 171.8V171.2C169.2 171.1 168.6 170.9 168.1 170.4C168 170.4 168 170.3 168 170.2C168 170.1 168.1 170 168.2 170C168.3 170 168.3 170 168.3 170.1C168.7 170.5 169.2 170.8 169.9 170.8V168.5C168.7 168.2 168.2 167.8 168.2 167C168.2 166.2 168.9 165.6 169.9 165.6V165.3C169.9 165.2 170 165.1 170.1 165.1ZM169.9 168.1V165.9C169.1 165.9 168.6 166.4 168.6 167C168.6 167.5 168.9 167.9 169.9 168.1ZM170.2 168.6V170.8C171 170.8 171.5 170.3 171.5 169.7C171.6 169.2 171.3 168.8 170.2 168.6Z" fill="#A6A6A6"/>
<path d="M173 170.8L175.6 168.4C175.9 168.1 176.1 167.7 176.1 167.3C176.1 167 176 166.6 175.7 166.3C175.4 166 175 165.8 174.6 165.8C174.2 165.8 173.9 165.9 173.6 166.2L173.3 166.4C173.2 166.5 173.1 166.5 173 166.4C172.9 166.3 172.9 166.2 173 166.1L173.3 165.8C173.7 165.5 174.1 165.3 174.5 165.3C175 165.3 175.5 165.5 175.8 165.9C176.1 166.3 176.3 166.7 176.3 167.1C176.3 167.6 176.1 168.1 175.7 168.5L173.5 170.5H176.1C176.2 170.5 176.3 170.6 176.3 170.7C176.3 170.8 176.2 170.9 176.1 170.9H173C172.9 170.9 172.9 170.9 172.9 170.8C172.9 171 172.9 170.9 173 170.8Z" fill="#A6A6A6"/>
<path d="M178.3 170.4C178.5 170.4 178.7 170.6 178.7 170.8C178.7 171 178.5 171.2 178.3 171.2C178.1 171.2 177.9 171 177.9 170.8C177.9 170.5 178.1 170.4 178.3 170.4Z" fill="#A6A6A6"/>
<path d="M179.7 170.6C179.6 170.5 179.6 170.4 179.7 170.3C179.8 170.2 179.9 170.2 180 170.3C180.3 170.6 180.7 170.7 181.1 170.7C181.5 170.7 181.9 170.6 182.2 170.3C182.5 170 182.6 169.6 182.6 169.2C182.6 168.8 182.5 168.4 182.2 168.1C181.9 167.8 181.5 167.7 181.1 167.7C180.7 167.7 180.3 167.8 180 168.1C179.9 168.2 179.8 168.2 179.7 168.1C179.7 168.1 179.7 168.1 179.7 168C179.7 168 179.7 168 179.7 167.9L180 165.6C180 165.5 180 165.5 180.1 165.5H180.2H182.8C182.9 165.5 183 165.6 183 165.7C183 165.8 182.9 165.9 182.8 165.9H180.4L180.2 167.6C180.5 167.4 180.8 167.3 181.2 167.3C181.7 167.3 182.2 167.5 182.5 167.9C182.9 168.3 183.1 168.7 183.1 169.2C183.1 169.7 182.9 170.2 182.5 170.5C182.1 170.9 181.6 171.1 181.2 171.1C180.5 171.2 180 171 179.7 170.6Z" fill="#A6A6A6"/>
<path d="M184.5 168.4C184.5 167.6 184.7 167 185 166.4C185.3 165.9 185.8 165.6 186.4 165.6C187 165.6 187.5 165.9 187.8 166.4C188.1 166.9 188.3 167.6 188.3 168.4C188.3 169.2 188.1 169.8 187.8 170.4C187.5 170.9 187 171.2 186.4 171.2C185.8 171.2 185.3 170.9 185 170.4C184.7 169.8 184.5 169.1 184.5 168.4ZM184.9 168.4C184.9 169.1 185.1 169.7 185.4 170.1C185.7 170.5 186.1 170.8 186.5 170.8C186.9 170.8 187.3 170.6 187.6 170.1C187.9 169.7 188.1 169.1 188.1 168.4C188.1 167.7 187.9 167.1 187.6 166.7C187.3 166.3 186.9 166 186.5 166C186.1 166 185.7 166.2 185.4 166.7C185.1 167.1 184.9 167.7 184.9 168.4Z" fill="#A6A6A6"/>
<path d="M244.3 117.2H216.3C211.882 117.2 208.3 120.782 208.3 125.2V153.2C208.3 157.618 211.882 161.2 216.3 161.2H244.3C248.718 161.2 252.3 157.618 252.3 153.2V125.2C252.3 120.782 248.718 117.2 244.3 117.2Z" fill="#FFD8D0"/>
<path d="M238.8 135.4V157.1C238.8 158.4 236.9 159.2 230.3 159.2C223.8 159.2 221.8 158.4 221.8 157.1V135.4C221.8 129.6 226.4 125.9 226.4 124.7C226.4 123.6 226.4 120.3 226.4 120.3H234.1C234.1 120.3 234.1 123.5 234.1 124.7C234.2 125.9 238.8 129.6 238.8 135.4Z" fill="white"/>
<path d="M234.6 118.4H226V122.1H234.6V118.4Z" fill="#455A64"/>
<path d="M236.3 142.8H224.2V151.2H236.3V142.8Z" fill="#DBDBDB"/>
<path d="M221.5 165.1C221.6 165.1 221.7 165.2 221.7 165.3V165.6C222.3 165.6 222.7 165.8 223.1 166.2C223.2 166.3 223.2 166.3 223.2 166.4C223.2 166.5 223.1 166.6 223 166.6C223 166.6 222.9 166.6 222.9 166.5C222.5 166.2 222.1 166 221.7 166V168.2C222.9 168.5 223.4 168.9 223.4 169.7C223.4 170.5 222.7 171.1 221.7 171.2V171.8C221.7 171.9 221.6 172 221.5 172C221.4 172 221.3 171.9 221.3 171.8V171.2C220.6 171.1 220 170.9 219.5 170.4C219.4 170.4 219.4 170.3 219.4 170.2C219.4 170.1 219.5 170 219.6 170C219.7 170 219.7 170 219.7 170.1C220.1 170.5 220.6 170.8 221.3 170.8V168.5C220.1 168.2 219.6 167.8 219.6 167C219.6 166.2 220.3 165.6 221.3 165.6V165.3C221.3 165.2 221.4 165.1 221.5 165.1ZM221.3 168.1V165.9C220.5 165.9 220 166.4 220 167C220 167.5 220.3 167.9 221.3 168.1ZM221.6 168.6V170.8C222.4 170.8 222.9 170.3 222.9 169.7C223 169.2 222.7 168.8 221.6 168.6Z" fill="#A6A6A6"/>
<path d="M224.4 170.8L227 168.4C227.3 168.1 227.5 167.7 227.5 167.3C227.5 167 227.4 166.6 227.1 166.3C226.8 166 226.4 165.8 226 165.8C225.6 165.8 225.3 165.9 225 166.2L224.7 166.4C224.6 166.5 224.5 166.5 224.4 166.4C224.3 166.3 224.3 166.2 224.4 166.1L224.7 165.8C225.1 165.5 225.5 165.3 225.9 165.3C226.4 165.3 226.9 165.5 227.2 165.9C227.5 166.3 227.7 166.7 227.7 167.1C227.7 167.6 227.5 168.1 227.1 168.5L224.9 170.5H227.5C227.6 170.5 227.7 170.6 227.7 170.7C227.7 170.8 227.6 170.9 227.5 170.9H224.4C224.3 170.9 224.3 170.9 224.3 170.8C224.3 171 224.3 170.9 224.4 170.8Z" fill="#A6A6A6"/>
<path d="M229.7 170.4C229.9 170.4 230.1 170.6 230.1 170.8C230.1 171 229.9 171.2 229.7 171.2C229.5 171.2 229.3 171 229.3 170.8C229.3 170.5 229.5 170.4 229.7 170.4Z" fill="#A6A6A6"/>
<path d="M230.9 168.4C230.9 167.6 231.1 167 231.4 166.4C231.7 165.9 232.2 165.6 232.8 165.6C233.4 165.6 233.9 165.9 234.2 166.4C234.5 166.9 234.7 167.6 234.7 168.4C234.7 169.2 234.5 169.8 234.2 170.4C233.9 170.9 233.4 171.2 232.8 171.2C232.2 171.2 231.7 170.9 231.4 170.4C231.1 169.8 230.9 169.1 230.9 168.4ZM231.3 168.4C231.3 169.1 231.5 169.7 231.8 170.1C232.1 170.5 232.5 170.8 232.9 170.8C233.3 170.8 233.7 170.6 234 170.1C234.3 169.7 234.5 169.1 234.5 168.4C234.5 167.7 234.3 167.1 234 166.7C233.7 166.3 233.3 166 232.9 166C232.5 166 232.1 166.2 231.8 166.7C231.4 167.1 231.3 167.7 231.3 168.4Z" fill="#A6A6A6"/>
<path d="M236.5 168.4C236.5 167.6 236.7 167 237 166.4C237.3 165.9 237.8 165.6 238.4 165.6C239 165.6 239.5 165.9 239.8 166.4C240.1 166.9 240.3 167.6 240.3 168.4C240.3 169.2 240.1 169.8 239.8 170.4C239.5 170.9 239 171.2 238.4 171.2C237.8 171.2 237.3 170.9 237 170.4C236.7 169.8 236.5 169.1 236.5 168.4ZM236.9 168.4C236.9 169.1 237.1 169.7 237.4 170.1C237.7 170.5 238.1 170.8 238.5 170.8C238.9 170.8 239.3 170.6 239.6 170.1C239.9 169.7 240.1 169.1 240.1 168.4C240.1 167.7 239.9 167.1 239.6 166.7C239.3 166.3 238.9 166 238.5 166C238.1 166 237.7 166.2 237.4 166.7C237.1 167.1 236.9 167.7 236.9 168.4Z" fill="#A6A6A6"/>
<path d="M140.4 199.5H112.4C107.982 199.5 104.4 203.082 104.4 207.5V235.5C104.4 239.918 107.982 243.5 112.4 243.5H140.4C144.818 243.5 148.4 239.918 148.4 235.5V207.5C148.4 203.082 144.818 199.5 140.4 199.5Z" fill="#FFD8D0"/>
<path d="M116.2 222.2C116.2 229.9 119.3 242 119.7 242H132.6C133 242 137.4 231.7 137.4 221.3C137.4 210.5 129.9 208.6 129.9 207.9V206C129.9 204.9 129.9 203.6 129.9 203.6H122.3C122.3 203.6 122.3 204.8 122.3 206V207.8C122.3 208.6 116.2 212.6 116.2 222.2ZM130.7 211.4C134.4 211.4 137.4 221.5 134.7 222.5C130.9 223.9 127.3 211.4 130.7 211.4Z" fill="white"/>
<path d="M127.1 211.4C127.3 208.8 121.6 209.4 119.2 217.9C117.4 224.3 119.4 237.6 125.8 237.6C133.4 237.6 133.9 226.4 133.4 225.9C133 225.4 126.2 223 127.1 211.4Z" fill="#EBEBEB"/>
<path d="M120.8 206H131.5L130.8 201.3H121.5L120.8 206Z" fill="#455A64"/>
<path d="M117.9 249C118 249 118.1 249.1 118.1 249.2V249.5C118.7 249.5 119.1 249.7 119.5 250.1C119.6 250.2 119.6 250.2 119.6 250.3C119.6 250.4 119.5 250.5 119.4 250.5C119.4 250.5 119.3 250.5 119.3 250.4C118.9 250.1 118.5 249.9 118.1 249.9V252.1C119.3 252.4 119.8 252.8 119.8 253.6C119.8 254.4 119.1 255 118.1 255.1V255.7C118.1 255.8 118 255.9 117.9 255.9C117.8 255.9 117.7 255.8 117.7 255.7V255.1C117 255 116.4 254.8 115.9 254.3C115.8 254.3 115.8 254.2 115.8 254.1C115.8 254 115.9 253.9 116 253.9C116.1 253.9 116.1 253.9 116.1 254C116.5 254.4 117 254.7 117.7 254.7V252.4C116.5 252.1 116 251.7 116 250.9C116 250.1 116.7 249.5 117.7 249.5V249.2C117.8 249.1 117.8 249 117.9 249ZM117.8 252.1V249.9C117 249.9 116.5 250.4 116.5 251C116.5 251.5 116.7 251.8 117.8 252.1ZM118.1 252.6V254.8C118.9 254.8 119.4 254.3 119.4 253.7C119.4 253.1 119.2 252.8 118.1 252.6Z" fill="#A6A6A6"/>
<path d="M121 254.6C120.9 254.5 120.9 254.4 121 254.3C121.1 254.2 121.2 254.2 121.3 254.3C121.6 254.6 122 254.7 122.4 254.7C122.8 254.7 123.2 254.6 123.5 254.3C123.8 254 123.9 253.6 123.9 253.2C123.9 252.8 123.8 252.4 123.5 252.1C123.2 251.8 122.8 251.7 122.4 251.7C122 251.7 121.6 251.8 121.3 252.1C121.2 252.2 121.1 252.2 121 252.1C121 252.1 121 252.1 121 252C121 252 121 252 121 251.9L121.3 249.6C121.3 249.5 121.3 249.5 121.4 249.5H121.5H124.1C124.2 249.5 124.3 249.6 124.3 249.7C124.3 249.8 124.2 249.9 124.1 249.9H121.7L121.5 251.6C121.8 251.4 122.1 251.3 122.5 251.3C123 251.3 123.5 251.5 123.8 251.9C124.2 252.3 124.4 252.7 124.4 253.2C124.4 253.7 124.2 254.2 123.8 254.5C123.4 254.9 122.9 255.1 122.5 255.1C121.9 255.1 121.4 255 121 254.6Z" fill="#A6A6A6"/>
<path d="M126.3 254.3C126.5 254.3 126.7 254.5 126.7 254.7C126.7 254.9 126.5 255.1 126.3 255.1C126.1 255.1 125.9 254.9 125.9 254.7C125.9 254.5 126.1 254.3 126.3 254.3Z" fill="#A6A6A6"/>
<path d="M127.5 252.3C127.5 251.5 127.7 250.9 128 250.3C128.3 249.8 128.8 249.5 129.4 249.5C130 249.5 130.5 249.8 130.8 250.3C131.1 250.8 131.3 251.5 131.3 252.3C131.3 253.1 131.1 253.7 130.8 254.3C130.5 254.8 130 255.1 129.4 255.1C128.8 255.1 128.3 254.8 128 254.3C127.7 253.8 127.5 253.1 127.5 252.3ZM127.9 252.3C127.9 253 128.1 253.6 128.4 254C128.7 254.4 129.1 254.7 129.5 254.7C129.9 254.7 130.3 254.5 130.6 254C130.9 253.6 131.1 253 131.1 252.3C131.1 251.6 130.9 251 130.6 250.6C130.3 250.2 129.9 249.9 129.5 249.9C129.1 249.9 128.7 250.1 128.4 250.6C128.1 251 127.9 251.7 127.9 252.3Z" fill="#A6A6A6"/>
<path d="M133.2 252.3C133.2 251.5 133.4 250.9 133.7 250.3C134 249.8 134.5 249.5 135.1 249.5C135.7 249.5 136.2 249.8 136.5 250.3C136.8 250.8 137 251.5 137 252.3C137 253.1 136.8 253.7 136.5 254.3C136.2 254.8 135.7 255.1 135.1 255.1C134.5 255.1 134 254.8 133.7 254.3C133.3 253.8 133.2 253.1 133.2 252.3ZM133.5 252.3C133.5 253 133.7 253.6 134 254C134.3 254.4 134.7 254.7 135.1 254.7C135.5 254.7 135.9 254.5 136.2 254C136.5 253.6 136.7 253 136.7 252.3C136.7 251.6 136.5 251 136.2 250.6C135.9 250.2 135.5 249.9 135.1 249.9C134.7 249.9 134.3 250.1 134 250.6C133.7 251 133.5 251.7 133.5 252.3Z" fill="#A6A6A6"/>
<path d="M192.4 199.5H164.4C159.982 199.5 156.4 203.082 156.4 207.5V235.5C156.4 239.918 159.982 243.5 164.4 243.5H192.4C196.818 243.5 200.4 239.918 200.4 235.5V207.5C200.4 203.082 196.818 199.5 192.4 199.5Z" fill="#FFD8D0"/>
<path d="M191.1 235.4H165.8C163.3 235.4 161.2 233.4 161.2 230.8V215.5C161.2 213 163.2 210.9 165.8 210.9H191.1C193.6 210.9 195.7 212.9 195.7 215.5V230.8C195.7 233.3 193.6 235.4 191.1 235.4Z" fill="white"/>
<path d="M191.8 207.9H165.2V211H191.8V207.9Z" fill="#455A64"/>
<path d="M195.8 216.9H161.2V229.5H195.8V216.9Z" fill="#455A64"/>
<path d="M189 223.1C189 226 184.3 228.4 178.5 228.4C172.7 228.4 168 226 168 223.1C168 220.2 172.7 217.8 178.5 217.8C184.3 217.8 189 220.2 189 223.1Z" fill="white"/>
<path d="M169.8 249C169.9 249 170 249.1 170 249.2V249.5C170.6 249.5 171 249.7 171.4 250.1C171.5 250.2 171.5 250.2 171.5 250.3C171.5 250.4 171.4 250.5 171.3 250.5C171.3 250.5 171.2 250.5 171.2 250.4C170.8 250.1 170.4 249.9 170 249.9V252.1C171.2 252.4 171.7 252.8 171.7 253.6C171.7 254.4 171 255 170 255.1V255.7C170 255.8 169.9 255.9 169.8 255.9C169.7 255.9 169.6 255.8 169.6 255.7V255.1C168.9 255 168.3 254.8 167.8 254.3C167.7 254.3 167.7 254.2 167.7 254.1C167.7 254 167.8 253.9 167.9 253.9C168 253.9 168 253.9 168 254C168.4 254.4 168.9 254.7 169.6 254.7V252.4C168.4 252.1 167.9 251.7 167.9 250.9C167.9 250.1 168.6 249.5 169.6 249.5V249.2C169.6 249.1 169.7 249 169.8 249ZM169.6 252.1V249.9C168.8 249.9 168.3 250.4 168.3 251C168.3 251.5 168.6 251.8 169.6 252.1ZM170 252.6V254.8C170.8 254.8 171.3 254.3 171.3 253.7C171.3 253.1 171 252.8 170 252.6Z" fill="#A6A6A6"/>
<path d="M175.9 254H172.9H172.8C172.7 253.9 172.7 253.8 172.8 253.7L176 249.7C176.1 249.6 176.2 249.6 176.3 249.7C176.3 249.7 176.3 249.8 176.4 249.8V253.6H176.8C176.9 253.6 177 253.7 177 253.8C177 253.9 176.9 254 176.8 254H176.4V255C176.4 255.1 176.3 255.2 176.2 255.2C176.1 255.2 176 255.1 176 255V254H175.9ZM175.9 253.6V250.3L173.3 253.6H175.9Z" fill="#A6A6A6"/>
<path d="M178.6 254.3C178.8 254.3 179 254.5 179 254.7C179 254.9 178.8 255.1 178.6 255.1C178.4 255.1 178.2 254.9 178.2 254.7C178.2 254.5 178.4 254.3 178.6 254.3Z" fill="#A6A6A6"/>
<path d="M180 254.6C179.9 254.5 179.9 254.4 180 254.3C180.1 254.2 180.2 254.2 180.3 254.3C180.6 254.6 181 254.7 181.4 254.7C181.8 254.7 182.2 254.6 182.5 254.3C182.8 254 182.9 253.6 182.9 253.2C182.9 252.8 182.8 252.4 182.5 252.1C182.2 251.8 181.8 251.7 181.4 251.7C181 251.7 180.6 251.8 180.3 252.1C180.2 252.2 180.1 252.2 180 252.1C180 252.1 180 252.1 180 252C180 252 180 252 180 251.9L180.3 249.6C180.3 249.5 180.3 249.5 180.4 249.5H180.5H183.1C183.2 249.5 183.3 249.6 183.3 249.7C183.3 249.8 183.2 249.9 183.1 249.9H180.7L180.5 251.6C180.8 251.4 181.1 251.3 181.5 251.3C182 251.3 182.5 251.5 182.8 251.9C183.2 252.3 183.4 252.7 183.4 253.2C183.4 253.7 183.2 254.2 182.8 254.5C182.4 254.9 181.9 255.1 181.5 255.1C180.8 255.1 180.3 255 180 254.6Z" fill="#A6A6A6"/>
<path d="M184.8 252.3C184.8 251.5 185 250.9 185.3 250.3C185.6 249.8 186.1 249.5 186.7 249.5C187.3 249.5 187.8 249.8 188.1 250.3C188.4 250.8 188.6 251.5 188.6 252.3C188.6 253.1 188.4 253.7 188.1 254.3C187.8 254.8 187.3 255.1 186.7 255.1C186.1 255.1 185.6 254.8 185.3 254.3C185 253.8 184.8 253.1 184.8 252.3ZM185.2 252.3C185.2 253 185.4 253.6 185.7 254C186 254.4 186.4 254.7 186.8 254.7C187.2 254.7 187.6 254.5 187.9 254C188.2 253.6 188.4 253 188.4 252.3C188.4 251.6 188.2 251 187.9 250.6C187.6 250.2 187.2 249.9 186.8 249.9C186.4 249.9 186 250.1 185.7 250.6C185.4 251 185.2 251.7 185.2 252.3Z" fill="#A6A6A6"/>
<path d="M244.3 199.5H216.3C211.882 199.5 208.3 203.082 208.3 207.5V235.5C208.3 239.918 211.882 243.5 216.3 243.5H244.3C248.718 243.5 252.3 239.918 252.3 235.5V207.5C252.3 203.082 248.718 199.5 244.3 199.5Z" fill="#FFD8D0"/>
<path d="M240.7 227.3C240.7 231.4 240.7 239 240.7 239H219.8C219.8 239 219.8 231.4 219.8 227.3C219.8 223.2 220.7 212.5 230.2 212.5C239.8 212.5 240.7 223.2 240.7 227.3Z" fill="white"/>
<path d="M241.3 240.6H219.2C218.6 240.6 218.1 240.1 218.1 239.5C218.1 238.9 218.6 238.4 219.2 238.4H241.3C241.9 238.4 242.4 238.9 242.4 239.5C242.4 240.1 241.9 240.6 241.3 240.6Z" fill="white"/>
<path d="M233.6 210.1H227V215.1H233.6V210.1Z" fill="white"/>
<path d="M234.3 207.7H226.2V211H234.3V207.7Z" fill="#455A64"/>
<path d="M231.8 204.5H228.8V208.3H231.8V204.5Z" fill="#455A64"/>
<path d="M227.2 203.1C226.4 203.7 226.1 204.9 227.3 205.6C228.3 206.2 233.6 204.9 234.2 204.9C234.8 205 236.1 205.6 236.3 205.6C236.5 205.6 237.1 205.3 237 205C237 204.7 235.2 203.4 233.8 203.1C232.4 202.8 228.3 202.3 227.2 203.1Z" fill="#455A64"/>
<path d="M221.7 249C221.8 249 221.9 249.1 221.9 249.2V249.5C222.5 249.5 222.9 249.7 223.3 250.1C223.4 250.2 223.4 250.2 223.4 250.3C223.4 250.4 223.3 250.5 223.2 250.5C223.2 250.5 223.1 250.5 223.1 250.4C222.7 250.1 222.3 249.9 221.9 249.9V252.1C223.1 252.4 223.6 252.8 223.6 253.6C223.6 254.4 222.9 255 221.9 255.1V255.7C221.9 255.8 221.8 255.9 221.7 255.9C221.6 255.9 221.5 255.8 221.5 255.7V255.1C220.8 255 220.2 254.8 219.7 254.3C219.6 254.3 219.6 254.2 219.6 254.1C219.6 254 219.7 253.9 219.8 253.9C219.9 253.9 219.9 253.9 219.9 254C220.3 254.4 220.8 254.7 221.5 254.7V252.4C220.3 252.1 219.8 251.7 219.8 250.9C219.8 250.1 220.5 249.5 221.5 249.5V249.2C221.5 249.1 221.6 249 221.7 249ZM221.5 252.1V249.9C220.7 249.9 220.2 250.4 220.2 251C220.3 251.5 220.5 251.8 221.5 252.1ZM221.9 252.6V254.8C222.7 254.8 223.2 254.3 223.2 253.7C223.2 253.1 222.9 252.8 221.9 252.6Z" fill="#A6A6A6"/>
<path d="M228 249.9L226.6 251.4C227 251.5 227.3 251.6 227.6 251.9C228 252.3 228.2 252.8 228.2 253.2C228.2 253.7 228 254.2 227.6 254.5C227.2 254.9 226.7 255.1 226.3 255.1C225.8 255.1 225.3 254.9 225 254.5C224.9 254.4 224.9 254.3 225 254.2C225.1 254.1 225.2 254.1 225.3 254.2C225.6 254.5 226 254.6 226.4 254.6C226.8 254.6 227.2 254.5 227.5 254.2C227.8 253.9 227.9 253.5 227.9 253.1C227.9 252.7 227.8 252.3 227.5 252C227.2 251.7 226.8 251.6 226.4 251.6C226.3 251.6 226.3 251.6 226.2 251.5C226.1 251.4 226.1 251.3 226.2 251.2L227.6 249.8H225.5C225.4 249.8 225.3 249.7 225.3 249.6C225.3 249.5 225.4 249.4 225.5 249.4H228.1C228.2 249.4 228.3 249.5 228.3 249.6C228.1 249.8 228.1 249.8 228 249.9C228.1 249.9 228 249.9 228 249.9Z" fill="#A6A6A6"/>
<path d="M230.1 254.3C230.3 254.3 230.5 254.5 230.5 254.7C230.5 254.9 230.3 255.1 230.1 255.1C229.9 255.1 229.7 254.9 229.7 254.7C229.7 254.5 229.9 254.3 230.1 254.3Z" fill="#A6A6A6"/>
<path d="M231.5 254.6C231.4 254.5 231.4 254.4 231.5 254.3C231.6 254.2 231.7 254.2 231.8 254.3C232.1 254.6 232.5 254.7 232.9 254.7C233.3 254.7 233.7 254.6 234 254.3C234.3 254 234.4 253.6 234.4 253.2C234.4 252.8 234.3 252.4 234 252.1C233.7 251.8 233.3 251.7 232.9 251.7C232.5 251.7 232.1 251.8 231.8 252.1C231.7 252.2 231.6 252.2 231.5 252.1C231.5 252.1 231.5 252.1 231.5 252C231.5 252 231.5 252 231.5 251.9L231.8 249.6C231.8 249.5 231.8 249.5 231.9 249.5H232H234.6C234.7 249.5 234.8 249.6 234.8 249.7C234.8 249.8 234.7 249.9 234.6 249.9H232.2L232 251.6C232.3 251.4 232.6 251.3 233 251.3C233.5 251.3 234 251.5 234.3 251.9C234.7 252.3 234.9 252.7 234.9 253.2C234.9 253.7 234.7 254.2 234.3 254.5C233.9 254.9 233.4 255.1 233 255.1C232.3 255.1 231.9 255 231.5 254.6Z" fill="#A6A6A6"/>
<path d="M236.3 252.3C236.3 251.5 236.5 250.9 236.8 250.3C237.1 249.8 237.6 249.5 238.2 249.5C238.8 249.5 239.3 249.8 239.6 250.3C239.9 250.8 240.1 251.5 240.1 252.3C240.1 253.1 239.9 253.7 239.6 254.3C239.3 254.8 238.8 255.1 238.2 255.1C237.6 255.1 237.1 254.8 236.8 254.3C236.5 253.8 236.3 253.1 236.3 252.3ZM236.7 252.3C236.7 253 236.9 253.6 237.2 254C237.5 254.4 237.9 254.7 238.3 254.7C238.7 254.7 239.1 254.5 239.4 254C239.7 253.6 239.9 253 239.9 252.3C239.9 251.6 239.7 251 239.4 250.6C239.1 250.2 238.7 249.9 238.3 249.9C237.9 249.9 237.5 250.1 237.2 250.6C236.9 251 236.7 251.7 236.7 252.3Z" fill="#A6A6A6"/>
<path d="M216.5 294.9H140.6C135.077 294.9 130.6 299.377 130.6 304.9V310.8C130.6 316.323 135.077 320.8 140.6 320.8H216.5C222.023 320.8 226.5 316.323 226.5 310.8V304.9C226.5 299.377 222.023 294.9 216.5 294.9Z" fill="#263238"/>
<path d="M145.4 309.6H142.6L142 311.1C141.9 311.4 141.7 311.5 141.4 311.5C141.3 311.5 141.3 311.5 141.2 311.5C140.9 311.4 140.7 311 140.8 310.7L143.3 304C143.4 303.7 143.7 303.6 143.9 303.6C144.2 303.6 144.4 303.7 144.5 304L147 310.7C147.1 311 147 311.4 146.6 311.5C146.5 311.5 146.5 311.5 146.4 311.5C146.1 311.5 145.9 311.4 145.8 311.1L145.4 309.6ZM144.9 308.4L144 306L143.1 308.4H144.9Z" fill="white"/>
<path d="M148.7 310.9V304.2C148.7 303.8 149 303.6 149.3 303.6H150.6C152.8 303.6 154.6 305.4 154.6 307.6C154.6 309.8 152.8 311.6 150.6 311.6H149.3C148.9 311.5 148.7 311.2 148.7 310.9ZM149.9 310.2H150.6C152.1 310.2 153.3 309 153.3 307.5C153.3 306 152.1 304.8 150.6 304.8H149.9V310.2Z" fill="white"/>
<path d="M156.5 310.9V304.2C156.5 303.8 156.8 303.6 157.1 303.6H158.4C160.6 303.6 162.4 305.4 162.4 307.6C162.4 309.8 160.6 311.6 158.4 311.6H157.1C156.8 311.5 156.5 311.2 156.5 310.9ZM157.8 310.2H158.5C160 310.2 161.2 309 161.2 307.5C161.2 306 160 304.8 158.5 304.8H157.8V310.2Z" fill="white"/>
<path d="M173 304.8H171.2V310.9C171.2 311.3 170.9 311.5 170.6 311.5C170.3 311.5 170 311.2 170 310.9V304.8H168.2C167.8 304.8 167.6 304.5 167.6 304.2C167.6 303.8 167.9 303.6 168.2 303.6H173.1C173.4 303.6 173.7 303.9 173.7 304.2C173.6 304.5 173.3 304.8 173 304.8Z" fill="white"/>
<path d="M181.2 304.5C181.9 305.3 182.3 306.3 182.3 307.4C182.3 308.5 181.9 309.5 181.2 310.3C180.5 311 179.5 311.5 178.5 311.5C177.4 311.5 176.4 311 175.7 310.3C175 309.6 174.6 308.5 174.6 307.4C174.6 306.3 175 305.3 175.7 304.5C176.4 303.7 177.4 303.3 178.5 303.3C179.5 303.3 180.5 303.8 181.2 304.5ZM181 307.4C181 306.6 180.7 305.9 180.2 305.4C179.7 304.9 179.1 304.6 178.4 304.6C177.7 304.6 177 304.9 176.6 305.4C176.1 305.9 175.8 306.6 175.8 307.4C175.8 308.2 176.1 308.9 176.6 309.4C177.1 309.9 177.7 310.2 178.4 310.2C179.1 310.2 179.7 309.9 180.2 309.4C180.7 308.9 181 308.2 181 307.4Z" fill="white"/>
<path d="M187.6 307.4C187.6 305.1 189.5 303.3 191.8 303.3C192.8 303.3 193.7 303.6 194.4 304.2C194.7 304.4 194.7 304.8 194.5 305.1C194.3 305.4 193.9 305.4 193.6 305.2C193.1 304.8 192.5 304.6 191.8 304.6C191 304.6 190.3 304.9 189.8 305.4C189.3 305.9 189 306.6 189 307.4C189 308.2 189.3 308.9 189.8 309.4C190.3 309.9 191.1 310.2 191.8 310.2C192.5 310.2 193.1 310 193.6 309.6C193.9 309.4 194.3 309.5 194.5 309.7C194.7 310 194.7 310.4 194.4 310.6C193.7 311.2 192.8 311.5 191.8 311.5C189.5 311.5 187.6 309.7 187.6 307.4Z" fill="white"/>
<path d="M200.6 309.6H197.8L197.2 311.1C197.1 311.4 196.9 311.5 196.6 311.5C196.5 311.5 196.5 311.5 196.4 311.5C196.1 311.4 195.9 311 196 310.7L198.5 304C198.6 303.7 198.9 303.6 199.1 303.6C199.4 303.6 199.6 303.7 199.7 304L202.2 310.7C202.3 311 202.2 311.4 201.8 311.5C201.7 311.5 201.7 311.5 201.6 311.5C201.3 311.5 201.1 311.4 201 311.1L200.6 309.6ZM200.2 308.4L199.3 306L198.4 308.4H200.2Z" fill="white"/>
<path d="M209.2 310.5C209.3 310.8 209.1 311.2 208.8 311.3C208.8 311.3 208.7 311.3 208.5 311.3C208.4 311.3 208.2 311.3 208.1 311.2C208 311.1 207.8 311 207.7 310.8C207.5 310.5 207.5 310.1 207.5 309.4C207.5 309.2 207.4 309 207.4 308.9C207.3 308.8 207.2 308.7 207.1 308.6C206.9 308.4 206.6 308.3 206.5 308.3H205V310.8C205 311.1 204.7 311.4 204.4 311.4C204 311.4 203.8 311.1 203.8 310.8V304.1C203.8 303.7 204.1 303.5 204.4 303.5H206.4C207.8 303.5 208.8 304.6 208.8 305.9C208.8 306.7 208.5 307.3 207.9 307.8C208 307.9 208.2 308.1 208.3 308.2C208.5 308.5 208.7 309 208.7 309.4C208.7 309.7 208.7 310 208.7 310.1C209 310.2 209.1 310.4 209.2 310.5ZM207.6 306C207.6 305.3 207.1 304.8 206.4 304.8H205V307.1H206.4C207.1 307.1 207.6 306.6 207.6 306Z" fill="white"/>
<path d="M215.7 304.8H213.9V310.9C213.9 311.3 213.6 311.5 213.3 311.5C213 311.5 212.7 311.2 212.7 310.9V304.8H210.9C210.5 304.8 210.3 304.5 210.3 304.2C210.3 303.8 210.6 303.6 210.9 303.6H215.8C216.1 303.6 216.4 303.9 216.4 304.2C216.3 304.5 216 304.8 215.7 304.8Z" fill="white"/>
<path d="M54.2 294.6C54.6 284.9 54.4 275.2 53.8 265.6C52.5 245.7 49.2 225.9 44.7 206.4C42.2 195.5 39 184.7 35.8 173.9C35.7 173.6 35.2 173.7 35.3 174C45.4 211.9 53.6 251 53.1 290.4C52.9 301.4 51.7 312.3 50.6 323.2C50.6 323.5 51.1 323.6 51.1 323.3C53.1 314 53.8 304.2 54.2 294.6Z" fill="#FFC727"/>
<path d="M35.3 174C35.3 174 20.1 212.7 23.5 221.8C26.9 230.9 34 232.8 34 232.8C34 232.8 24.7 246.1 31.2 258.6C37.7 271.1 52.2 270.5 53.2 284.7C53 284.7 53.8 225.5 35.3 174Z" fill="#FFC727"/>
<path d="M51.4 260.3C51.4 260.2 51.4 260.2 51.4 260.1C49.3 233.8 44.6 207.6 36.6 182.3C36.6 182.2 36.5 182.2 36.5 182.3C39.5 193.6 42.2 205 44.5 216.4C42.5 214.4 39.9 213.2 37.2 212.3C37.1 212.3 37.1 212.4 37.2 212.4C40 213.6 42.7 215 44.7 217.4C45.1 219.6 45.6 221.9 46 224.1C42.6 220.3 37.9 218.4 33.1 216.6C33 216.6 33 216.7 33.1 216.7C38 218.7 42.9 221.3 46.3 225.5C47.5 231.9 48.5 238.4 49.4 244.8C46.9 242.2 43.8 240.4 40.3 239.6C40.2 239.6 40.1 239.7 40.2 239.8C43.8 240.8 46.9 242.9 49.4 245.7C49.4 245.7 49.4 245.7 49.5 245.7C49.8 248 50.1 250.3 50.4 252.5C48.5 250.9 46.4 249.6 44 248.7C43.9 248.7 43.9 248.8 44 248.8C46.4 249.8 48.5 251.3 50.4 253H50.5C50.8 255.2 51 257.3 51.2 259.5C47.7 255.3 43.4 252.2 38.3 250.3C38.2 250.3 38.1 250.4 38.2 250.5C43.2 252.7 47.6 256.1 50.9 260.3C51 260.4 51.1 260.4 51.2 260.4C51.5 263.7 51.8 267.1 52.1 270.4C52.1 270.4 52.2 270.5 52.2 270.4C51.9 267.1 51.7 263.7 51.4 260.3Z" fill="#263238"/>
<path d="M39.1 208.5C36.5 206.7 33.1 205.9 29.9 205.6C29.8 205.6 29.8 205.7 29.9 205.7C33.2 206.2 35.9 207.4 39 208.7C39.1 208.8 39.2 208.6 39.1 208.5Z" fill="#263238"/>
<path d="M41 249.5C38.9 248.2 36.5 247.5 34.1 247.1C34 247.1 34 247.2 34.1 247.2C36.5 247.6 38.7 248.5 40.9 249.6C41 249.7 41.1 249.5 41 249.5Z" fill="#263238"/>
<path d="M94.3 222.5C87.9 227 81.8 232.1 76.7 237.9C71.2 244.1 67.1 251.1 64.3 258.9C58.5 274.9 55.4 292.1 55.1 309.1C54.9 318.6 55.8 328 57.8 337.3C57.9 337.6 58.4 337.5 58.3 337.2C55.8 320.9 55.9 304.2 58.6 287.9C61.2 271.9 65.3 254.5 75.5 241.5C81 234.4 87.9 228.8 94.8 223.1C95.1 222.7 94.6 222.2 94.3 222.5Z" fill="#FFC727"/>
<path d="M57.3 297.6C57.3 297.6 62.5 288.8 70.2 281.2C77.8 273.6 84.3 268.2 85.2 263.1C86.2 258.1 77.6 254.3 77.6 254.3C77.6 254.3 88.2 256.2 91 251.8C93.9 247.4 95.3 221.7 95.3 221.7C95.3 221.7 76.1 235.4 67.2 254.6C58.2 273.8 57.3 297.6 57.3 297.6Z" fill="#FFC727"/>
<path d="M88.6 228.2C80.5 236.1 72.4 244.6 67.6 255C66 258.6 64.6 262.3 63.4 266.1C63.2 266.9 62.9 267.6 62.7 268.4V268.5C60.3 276.3 58.7 284.3 57.2 292.2C57.2 292.3 57.3 292.3 57.3 292.2C58.1 288.2 59 284.2 60.1 280.1H60.2C61.8 279.4 63.5 279 65.2 278.8C65.3 278.8 65.3 278.6 65.2 278.6C63.5 278.7 61.8 279 60.2 279.5C61.1 275.9 62.1 272.2 63.3 268.7C67 267.8 70.9 267.3 74.7 267.2V267.1C70.9 266.9 67.2 267.3 63.5 268.1C63.7 267.5 63.9 266.9 64.1 266.3C66.6 265.7 69.1 265.3 71.7 265V264.9C69.2 265 66.7 265.2 64.3 265.8C65.3 262.7 66.5 259.7 67.7 256.7C68.7 254.2 70 251.9 71.3 249.7C73.4 249.2 75.3 248.8 77.4 248.6C77.5 248.6 77.5 248.5 77.4 248.5C75.5 248.4 73.5 248.5 71.7 249.1C72.7 247.5 73.8 245.9 74.9 244.3C79.2 243.3 83.6 242.5 88 243.3C88.1 243.3 88.1 243.2 88 243.2C83.8 242.1 79.6 242.7 75.5 243.6C76 243 76.4 242.4 76.9 241.8C79.5 241 82.2 240.6 84.9 240.5C85 240.5 85 240.4 84.9 240.4C82.4 240.2 79.8 240.4 77.4 241.1C81 236.7 84.9 232.5 88.8 228.4C89 228.1 88.8 228 88.6 228.2Z" fill="#263238"/>
<path d="M88.4 245.7C87.1 245.6 85.9 245.4 84.6 245.6C84.4 245.6 84.5 245.9 84.6 245.9C85.9 245.9 87.1 245.8 88.4 245.9C88.5 245.9 88.5 245.7 88.4 245.7Z" fill="#263238"/>
<path d="M74.6 270.6C72.6 270.6 70.6 271.1 68.7 271.8V271.9C70.7 271.4 72.6 271.2 74.6 270.9C74.8 270.9 74.8 270.6 74.6 270.6Z" fill="#263238"/>
<path d="M70.4 262C69.6 262 68.7 262.1 67.9 262.2C67.8 262.2 67.8 262.3 67.9 262.3C68.7 262.3 69.6 262.3 70.4 262.2C70.6 262.2 70.6 262 70.4 262Z" fill="#263238"/>
<path d="M1 249.7C7.2 251.8 13.3 254.6 18.8 258.1C24.7 261.8 29.6 266.6 33.7 272.2C42.1 283.8 48.6 297 52.8 310.7C55.1 318.4 56.6 326.2 57.1 334.2C57.1 334.5 56.7 334.5 56.7 334.2C54.9 320.4 51 306.9 45.1 294.3C39.3 282 31.9 268.8 20.7 260.6C14.6 256.1 7.7 253.2 0.800004 250.2C0.400004 250.1 0.600004 249.6 1 249.7Z" fill="#FFC727"/>
<path d="M48.3 301.9C48.3 301.9 42 296 34.1 291.6C26.2 287.2 19.7 284.3 17.7 280.4C15.7 276.5 21.9 271.5 21.9 271.5C21.9 271.5 13.8 275.5 10.4 272.6C7.1 269.7 0 249.3 0 249.3C0 249.3 18.7 256 30.4 269.4C42.1 282.9 48.3 301.9 48.3 301.9Z" fill="#FFC727"/>
<path d="M47.3 297.7C37.9 280.1 25.5 264.2 8.39999 253.8C12.9 256.7 17.1 260 20.9 263.6C17.4 263.5 13.9 264.1 10.8 265.7C10.7 265.7 10.8 265.8 10.9 265.8C14.3 264.6 17.6 263.9 21.2 264.1C21.3 264.1 21.3 264.1 21.3 264.1C21.9 264.7 22.5 265.3 23.1 265.9C21.3 266 19.5 266.2 17.7 266.6V266.7C19.6 266.3 21.5 266.2 23.4 266.2C26.5 269.3 29.5 272.7 32.2 276.2C31 276 29.6 276.1 28.4 276.5C28.3 276.5 28.3 276.7 28.4 276.6C29.8 276.4 31.1 276.5 32.4 276.5C32.9 277.2 33.4 277.8 33.9 278.5C30.1 278.3 26.3 278.6 22.5 279.6C22.4 279.6 22.5 279.7 22.5 279.7C26.4 278.9 30.2 278.7 34.2 278.9C34.7 279.5 35.1 280.2 35.6 280.8C33.3 280.7 31.1 281 28.8 281.6C28.7 281.6 28.7 281.8 28.8 281.7C31.1 281.2 33.4 281 35.8 281.2C37.8 284 39.7 286.8 41.6 289.7C40.6 289.5 39.6 289.6 38.6 289.9C38.5 289.9 38.6 290 38.6 290C39.7 289.9 40.7 290 41.8 290.2C43.5 292.8 45.1 295.4 46.6 298C47.1 298.1 47.4 297.9 47.3 297.7Z" fill="#263238"/>
<path d="M32.8 283.1C31 282.9 29.1 283.2 27.4 283.8V283.9C29.2 283.6 31 283.4 32.8 283.3C32.9 283.3 32.9 283.1 32.8 283.1Z" fill="#263238"/>
<path d="M16.4 261.7C15.6 261.6 14.7 261.7 13.9 261.8C13.8 261.8 13.8 262 13.9 261.9C14.7 261.8 15.5 261.8 16.4 261.8C16.6 261.9 16.6 261.7 16.4 261.7Z" fill="#263238"/>
<path d="M72.4 360H30.2L36.2 315.9L37.7 304.6H64.9L66.4 315.9L72.4 360Z" fill="#455A64"/>
<path d="M66.4 315.9H36.2L37.7 304.6H64.9L66.4 315.9Z" fill="#263238"/>
<path d="M68.8 300.6H33.9V310.2H68.8V300.6Z" fill="#455A64"/>
</svg>
