<svg width="410" height="408" viewBox="0 0 410 408" fill="none" xmlns="http://www.w3.org/2000/svg">
<path d="M211.7 407.6C321.052 407.6 409.7 394.84 409.7 379.1C409.7 363.36 321.052 350.6 211.7 350.6C102.348 350.6 13.7 363.36 13.7 379.1C13.7 394.84 102.348 407.6 211.7 407.6Z" fill="#4A56E2"/>
<path d="M70 246.5C70.5 234 70.3 221.5 69.5 209C67.8 183.3 63.6 157.7 57.8 132.6C54.5 118.5 50.5 104.6 46.3 90.6999C46.2 90.2999 45.5 90.4 45.6 90.8C58.6 139.7 69.2 190.2 68.5 241C68.3 255.2 66.6 269.2 65.3 283.3C65.3 283.7 65.9 283.8 66 283.4C68.7 271.6 69.5 258.9 70 246.5Z" fill="#FFD8D0"/>
<path d="M45.6 90.8999C45.6 90.8999 25.9 140.9 30.3 152.6C34.7 164.3 43.8 166.8 43.8 166.8C43.8 166.8 31.8 184 40.2 200.1C48.6 216.2 67.3 215.5 68.6 233.7C68.5 233.8 69.6 157.4 45.6 90.8999Z" fill="#FFD8D0"/>
<path d="M66.4 202.3C66.4 202.2 66.4 202.1 66.4 202C63.6 168 57.6 134.2 47.3 101.5C47.3 101.4 47.1 101.4 47.1 101.5C51 116.1 54.5 130.8 57.4 145.6C54.8 143 51.5 141.5 48 140.4C47.9 140.4 47.9 140.5 48 140.5C51.6 142.1 55.1 143.9 57.7 147C58.3 149.9 58.8 152.8 59.4 155.7C55 150.8 48.9 148.3 42.8 146C42.7 146 42.7 146.1 42.8 146.1C49.2 148.7 55.5 152 59.8 157.5C61.3 165.8 62.6 174.1 63.8 182.5C60.6 179.1 56.6 176.9 52.1 175.8C52 175.8 51.9 176 52 176C56.7 177.3 60.7 180 63.9 183.6C63.9 183.6 63.9 183.6 64 183.7C64.4 186.6 64.8 189.6 65.1 192.5C62.6 190.4 59.9 188.8 56.9 187.5C56.8 187.5 56.8 187.6 56.9 187.6C60 188.9 62.7 190.8 65.1 193.1H65.2C65.5 195.9 65.9 198.7 66.1 201.5C61.6 196.1 56 192.1 49.4 189.6C49.3 189.6 49.2 189.7 49.3 189.8C55.7 192.6 61.4 197 65.7 202.5C65.8 202.6 66 202.7 66.1 202.6C66.5 206.9 66.9 211.2 67.2 215.5C67.2 215.6 67.3 215.6 67.3 215.5C67.1 211.1 66.8 206.7 66.4 202.3Z" fill="#263238"/>
<path d="M50.6 135.4C47.2 133.1 42.8 132.1 38.8 131.7C38.7 131.7 38.7 131.8 38.8 131.9C43 132.5 46.6 134.1 50.5 135.7C50.6 135.8 50.7 135.5 50.6 135.4Z" fill="#263238"/>
<path d="M53 188.3C50.3 186.7 47.2 185.8 44.1 185.3C44 185.3 44 185.4 44.1 185.5C47.2 186.1 50 187.2 52.9 188.6C53 188.6 53.1 188.4 53 188.3Z" fill="#263238"/>
<path d="M121.8 153.4C113.6 159.2 105.7 165.8 99 173.3C91.9 181.3 86.7 190.3 83 200.4C75.6 221 71.5 243.3 71.1 265.2C70.9 277.5 72 289.6 74.6 301.6C74.7 302 75.3 301.9 75.3 301.5C72.1 280.4 72.2 258.9 75.7 237.8C79.1 217.1 84.4 194.7 97.5 177.9C104.7 168.8 113.6 161.6 122.4 154.1C122.9 153.7 122.3 153.1 121.8 153.4Z" fill="#FFD8D0"/>
<path d="M74 250.3C74 250.3 80.8 238.9 90.6 229.1C100.4 219.3 108.7 212.3 110 205.8C111.3 199.3 100.1 194.5 100.1 194.5C100.1 194.5 113.7 196.9 117.5 191.2C121.2 185.5 123 152.4 123 152.4C123 152.4 98.2 170.1 86.7 194.9C75.2 219.7 74 250.3 74 250.3Z" fill="#FFD8D0"/>
<path d="M114.5 160.9C104.1 171.1 93.6 182.1 87.4 195.5C85.3 200.1 83.5 204.9 81.9 209.8C81.6 210.8 81.3 211.8 81 212.7C81 212.7 81 212.8 80.9 212.9C77.9 222.9 75.7 233.3 73.9 243.5C73.9 243.6 74 243.6 74 243.5C75.1 238.3 76.2 233.1 77.6 227.9H77.7C79.8 227 81.9 226.5 84.2 226.2C84.3 226.2 84.3 225.9 84.2 225.9C82 226 79.9 226.4 77.8 227.1C79 222.4 80.3 217.7 81.8 213.1C86.6 211.9 91.6 211.3 96.5 211.2C96.6 211.2 96.6 211.1 96.5 211.1C91.5 210.9 86.9 211.3 82 212.3C82.3 211.5 82.5 210.7 82.8 209.9C86 209.2 89.3 208.5 92.6 208.2C92.7 208.2 92.7 208.1 92.6 208.1C89.4 208.2 86.2 208.5 83 209.3C84.3 205.3 85.8 201.4 87.4 197.5C88.7 194.3 90.3 191.3 92.1 188.4C94.7 187.8 97.3 187.2 100 187C100.1 187 100.1 186.9 100 186.9C97.5 186.7 95 186.9 92.6 187.6C93.9 185.5 95.3 183.4 96.7 181.4C102.3 180.2 107.9 179 113.6 180.1C113.7 180.1 113.7 180 113.6 179.9C108.2 178.5 102.8 179.3 97.4 180.4C98 179.6 98.6 178.8 99.2 178.1C102.6 177 106 176.5 109.6 176.5C109.7 176.5 109.7 176.4 109.6 176.4C106.3 176.1 103.1 176.4 99.9 177.3C104.5 171.6 109.6 166.2 114.6 160.9C114.9 160.8 114.7 160.6 114.5 160.9Z" fill="#263238"/>
<path d="M114.2 183.4C112.6 183.2 110.9 183 109.3 183.2C109.1 183.2 109.1 183.5 109.3 183.6C110.9 183.6 112.6 183.5 114.2 183.6C114.3 183.6 114.3 183.4 114.2 183.4Z" fill="#263238"/>
<path d="M96.4 215.6C93.8 215.6 91.2 216.3 88.8 217.1C88.7 217.1 88.8 217.2 88.8 217.2C91.3 216.6 93.9 216.4 96.4 215.9C96.6 215.9 96.6 215.6 96.4 215.6Z" fill="#263238"/>
<path d="M91 204.5C89.9 204.4 88.8 204.6 87.8 204.8C87.7 204.8 87.7 205 87.8 205C88.9 205 90 205 91.1 204.8C91.2 204.8 91.2 204.5 91 204.5Z" fill="#263238"/>
<path d="M1.39999 188.6C9.39999 191.4 17.3 194.9 24.4 199.4C32 204.2 38.3 210.3 43.6 217.6C54.4 232.5 62.8 249.7 68.2 267.3C71.2 277.2 73.1 287.3 73.8 297.6C73.8 298 73.3 298 73.2 297.7C70.9 279.9 65.8 262.5 58.2 246.2C50.7 230.3 41.2 213.3 26.7 202.7C18.8 197 9.89999 193.2 1.09999 189.2C0.599991 189.1 0.89999 188.4 1.39999 188.6Z" fill="#FFD8D0"/>
<path d="M62.4 256C62.4 256 54.3 248.4 44.1 242.7C33.9 237 25.5 233.3 23 228.3C20.5 223.3 28.4 216.9 28.4 216.9C28.4 216.9 17.9 222 13.6 218.3C9.29999 214.5 0.199997 188.2 0.199997 188.2C0.199997 188.2 24.3 196.8 39.4 214.2C54.4 231.4 62.4 256 62.4 256Z" fill="#FFD8D0"/>
<path d="M61.2 250.5C49.1 227.8 33 207.3 10.9 193.8C16.7 197.5 22.1 201.8 27.1 206.4C22.6 206.3 18.1 207 14.1 209.1C14 209.1 14.1 209.3 14.2 209.2C18.6 207.7 22.9 206.7 27.6 206.9C27.7 206.9 27.7 206.9 27.8 206.8C28.6 207.5 29.4 208.3 30.1 209.1C27.8 209.2 25.4 209.5 23.2 210C23.1 210 23.2 210.1 23.2 210.1C25.7 209.6 28 209.5 30.5 209.5C34.5 213.6 38.3 217.9 41.9 222.4C40.3 222.2 38.6 222.3 37 222.8C36.9 222.8 36.9 223 37 223C38.8 222.8 40.4 222.8 42.2 222.9C42.9 223.7 43.5 224.6 44.2 225.4C39.2 225.1 34.4 225.6 29.5 226.8C29.4 226.8 29.4 226.9 29.5 226.9C34.5 225.9 39.5 225.6 44.6 225.9C45.2 226.7 45.8 227.6 46.4 228.4C43.4 228.3 40.6 228.7 37.7 229.4C37.6 229.4 37.6 229.6 37.7 229.6C40.7 228.9 43.7 228.8 46.7 228.9C49.3 232.5 51.8 236.1 54.2 239.8C52.9 239.5 51.6 239.7 50.4 240C50.3 240 50.4 240.1 50.4 240.1C51.8 239.9 53.1 240.1 54.5 240.3C56.7 243.6 58.7 247 60.7 250.4C60.9 251 61.3 250.8 61.2 250.5Z" fill="#263238"/>
<path d="M42.4 231.7C40 231.5 37.6 231.9 35.4 232.6C35.3 232.6 35.4 232.7 35.4 232.7C37.7 232.3 40 232.1 42.4 232C42.5 232 42.5 231.7 42.4 231.7Z" fill="#263238"/>
<path d="M21.3 204.1C20.2 204 19.1 204.1 18.1 204.3C18 204.3 18 204.5 18.1 204.5C19.2 204.4 20.2 204.4 21.3 204.4C21.5 204.4 21.5 204.1 21.3 204.1Z" fill="#263238"/>
<path d="M93.6 331.3H39.1L46.8 274.4L48.8 259.8H83.8L85.8 274.4L93.6 331.3Z" fill="#455A64"/>
<path d="M85.8 274.4H46.8L48.8 259.8H83.8L85.8 274.4Z" fill="#263238"/>
<path d="M88.8 254.7H43.8V267.1H88.8V254.7Z" fill="#455A64"/>
<path d="M91 45.8H64.5V57H91V45.8Z" fill="#EBEBEB"/>
<path d="M76.2 59.9001H49.7V71.1001H76.2V59.9001Z" fill="#EBEBEB"/>
<path d="M302.2 17.7V339.7C302.2 349.2 294.6 356.9 285.3 356.9H118.8C109.5 356.9 101.9 349.2 101.9 339.7V17.7C101.9 8.2 109.5 0.5 118.8 0.5H285.4C294.6 0.6 302.2 8.3 302.2 17.7Z" fill="#263238"/>
<path d="M291.7 33.8999V329.2C291.7 338.2 284.9 345.5 276.6 345.5H127.6C119.2 345.5 112.5 338.2 112.5 329.2V33.8999C112.5 15.4999 119.3 11.3999 127.6 11.3999H157.4C159.1 11.3999 160.5 13.3999 160.5 15.7999V16.8999C160.5 22.5999 163.6 22.6999 167.5 22.6999H236.5C240.4 22.6999 243.5 22.6999 243.5 16.8999V15.7999C243.5 13.3999 244.9 11.3999 246.6 11.3999H276.5C284.9 11.4999 291.7 17.0999 291.7 33.8999Z" fill="white"/>
<path d="M211.5 15.5001H192.7C192.1 15.5001 191.5 15.0001 191.5 14.3001C191.5 13.7001 192 13.1001 192.7 13.1001H211.5C212.1 13.1001 212.7 13.6001 212.7 14.3001C212.6 15.0001 212.1 15.5001 211.5 15.5001Z" fill="white"/>
<path d="M273.3 142.8L273.5 222.7C273.5 227.2 269.9 230.8 265.4 230.8L138.7 231.1C134.2 231.1 130.6 227.5 130.6 223L130.4 143.1C130.4 138.9 133.7 135.6 137.9 135.6L265.7 135.3C269.9 135.3 273.3 138.7 273.3 142.8Z" fill="#4A56E2"/>
<path d="M252.827 212.563C253.403 208.517 250.59 204.77 246.544 204.194C242.498 203.618 238.751 206.431 238.175 210.477C237.599 214.524 240.412 218.27 244.458 218.846C248.504 219.422 252.251 216.609 252.827 212.563Z" fill="#37474F"/>
<path d="M262.1 211.5C262.1 215.6 258.8 218.9 254.7 219C250.6 219 247.3 215.7 247.2 211.6C247.2 207.5 250.5 204.2 254.6 204.1C258.7 204.1 262.1 207.4 262.1 211.5Z" fill="#FFC727"/>
<path d="M165.1 167.9H146.7C144.4 167.9 142.5 166 142.5 163.7V153.6C142.5 151.3 144.4 149.4 146.7 149.4H165.1C167.4 149.4 169.3 151.3 169.3 153.6V163.7C169.3 166 167.4 167.8 165.1 167.9Z" fill="#FFC727"/>
<path d="M256.8 159.2H244.7C241.9 159.2 239.6 156.9 239.6 154.1C239.6 151.3 241.9 149 244.7 149H256.8C259.6 149 261.9 151.3 261.9 154.1C261.9 157 259.7 159.2 256.8 159.2Z" fill="white"/>
<path d="M141.6 184.8L140.5 185.4H140.4C140.3 185.4 140.2 185.3 140.2 185.3C140.1 185.2 140.2 185 140.3 184.9L141.8 184C141.9 183.9 142.1 184 142.2 184.1C142.2 184.2 142.2 184.2 142.2 184.3V191.4C142.2 191.5 142.1 191.7 141.9 191.7C141.8 191.7 141.6 191.6 141.6 191.4V184.8Z" fill="#F8F8F8"/>
<path d="M144 191.3L147.6 188C148 187.6 148.3 187.1 148.3 186.5C148.3 186 148.1 185.5 147.8 185.2C147.4 184.8 146.9 184.5 146.3 184.5C145.8 184.5 145.3 184.7 144.9 185L144.5 185.3C144.4 185.4 144.2 185.4 144.1 185.3C144 185.2 144 185 144.1 184.9L144.5 184.5C145 184.1 145.6 183.8 146.2 183.8C146.9 183.8 147.6 184.1 148.1 184.6C148.6 185.1 148.8 185.7 148.8 186.3C148.8 187 148.5 187.7 148 188.2L144.9 191H148.6C148.7 191 148.9 191.1 148.9 191.3C148.9 191.4 148.8 191.6 148.6 191.6H144.3C144.2 191.6 144.1 191.6 144.1 191.5C143.9 191.6 143.9 191.4 144 191.3Z" fill="#F8F8F8"/>
<path d="M155.3 184.5L153.3 186.6C153.8 186.7 154.3 186.9 154.6 187.3C155.1 187.8 155.4 188.5 155.4 189.2C155.4 189.9 155.1 190.6 154.6 191.1C154.1 191.6 153.4 191.9 152.7 191.9C152 191.9 151.4 191.6 150.8 191.1C150.7 191 150.7 190.8 150.8 190.7C150.9 190.6 151.1 190.6 151.2 190.7C151.6 191.1 152.1 191.3 152.7 191.3C153.2 191.3 153.8 191.1 154.2 190.7C154.6 190.3 154.8 189.8 154.8 189.2C154.8 188.7 154.6 188.1 154.2 187.7C153.8 187.3 153.3 187.1 152.7 187.1C152.6 187.1 152.5 187.1 152.5 187C152.4 186.9 152.4 186.7 152.5 186.6L154.4 184.6H151.4C151.2 184.6 151.1 184.5 151.1 184.3C151.1 184.1 151.2 184 151.4 184H155C155.2 184 155.3 184.1 155.3 184.3C155.4 184.3 155.3 184.4 155.3 184.5C155.3 184.5 155.3 184.4 155.3 184.5Z" fill="#F8F8F8"/>
<path d="M161.8 190.2H157.6C157.5 190.2 157.5 190.2 157.4 190.1C157.3 190 157.3 189.8 157.4 189.7L161.9 184.1C162 184 162.2 184 162.3 184.1L162.4 184.2V189.5H162.9C163.1 189.5 163.2 189.6 163.2 189.8C163.2 189.9 163.1 190.1 162.9 190.1H162.4V191.4C162.4 191.5 162.3 191.7 162.1 191.7C162 191.7 161.8 191.6 161.8 191.4V190.2ZM161.8 189.6V185L158.1 189.6H161.8Z" fill="#F8F8F8"/>
<path d="M171.6 191C171.5 190.9 171.5 190.7 171.6 190.6C171.7 190.5 171.9 190.5 172 190.6C172.4 191 172.9 191.2 173.5 191.2C174 191.2 174.6 191 175 190.6C175.4 190.2 175.6 189.7 175.6 189.1C175.6 188.6 175.4 188 175 187.6C174.6 187.2 174.1 187 173.5 187C173 187 172.4 187.2 172 187.6C171.9 187.7 171.7 187.7 171.6 187.6L171.5 187.5V187.4C171.5 187.4 171.5 187.4 171.5 187.3L171.9 184.2C171.9 184.1 171.9 184 172 184C172 184 172.1 183.9 172.2 183.9H175.8C176 183.9 176.1 184 176.1 184.2C176.1 184.4 176 184.5 175.8 184.5H172.4L172.1 186.8C172.5 186.6 173 186.4 173.4 186.4C174.1 186.4 174.7 186.6 175.3 187.2C175.8 187.7 176.1 188.4 176.1 189.1C176.1 189.8 175.9 190.5 175.3 191C174.8 191.5 174.1 191.8 173.4 191.8C172.8 191.7 172.1 191.5 171.6 191Z" fill="#F8F8F8"/>
<path d="M179 185.6C179.5 184.7 180.4 184 181.7 183.9C181.8 183.9 182 184 182 184.2C182 184.4 181.9 184.5 181.7 184.5C180.6 184.5 179.9 185.1 179.4 185.9C179.1 186.4 179 186.9 178.8 187.5C179.3 187 180 186.6 180.7 186.6C182.1 186.6 183.3 187.7 183.3 189.2C183.3 190.6 182.2 191.8 180.7 191.8C179.3 191.8 178.2 190.7 178.1 189.3C178.1 189.1 178.1 189 178.1 188.8C178.2 187.7 178.4 186.6 179 185.6ZM178.8 189.2C178.8 189.3 178.8 189.3 178.8 189.3V189.4C178.9 190.4 179.8 191.2 180.8 191.2C181.9 191.2 182.8 190.3 182.8 189.2C182.8 188.1 181.9 187.2 180.7 187.2C179.7 187.1 178.8 188 178.8 189.2Z" fill="#F8F8F8"/>
<path d="M186.2 191.3L189.1 184.5H185.3C185.2 184.5 185 184.4 185 184.2C185 184.1 185.1 183.9 185.3 183.9H189.4C189.5 183.9 189.5 183.9 189.6 183.9C189.7 183.9 189.7 184 189.7 184.1V184.2C189.7 184.3 189.7 184.3 189.7 184.3L186.7 191.5C186.7 191.6 186.6 191.7 186.5 191.7H186.4C186.2 191.6 186.2 191.4 186.2 191.3Z" fill="#F8F8F8"/>
<path d="M193.9 183.9C194.8 183.9 195.5 184.6 195.5 185.5C195.5 186 195.2 186.5 194.8 186.8C195.7 187.2 196.4 188.1 196.4 189.1C196.4 190.5 195.3 191.6 193.9 191.6C192.5 191.6 191.4 190.5 191.4 189.1C191.4 188.1 192 187.1 193 186.8C192.6 186.5 192.4 186 192.4 185.5C192.3 184.6 193 183.9 193.9 183.9ZM193.9 191.1C195 191.1 195.9 190.2 195.9 189.1C195.9 188 195 187.1 193.9 187.1C192.8 187.1 191.9 188 191.9 189.1C191.9 190.3 192.8 191.1 193.9 191.1ZM193.9 186.6C194.5 186.6 195 186.1 195 185.5C195 184.9 194.5 184.4 193.9 184.4C193.3 184.4 192.8 184.9 192.8 185.5C192.8 186.1 193.3 186.6 193.9 186.6Z" fill="#F8F8F8"/>
<path d="M207.7 183.9C209 183.9 210.1 184.9 210.3 186.2C210.3 186.2 210.3 186.2 210.3 186.3C210.3 186.5 210.3 186.7 210.3 187C210.3 188 210.1 189.2 209.6 190.1C209.1 191 208.2 191.7 206.9 191.8C206.7 191.8 206.6 191.7 206.6 191.5C206.6 191.3 206.7 191.2 206.9 191.2C208 191.2 208.7 190.6 209.2 189.8C209.5 189.3 209.7 188.8 209.8 188.2C209.3 188.7 208.6 189.1 207.9 189.1C206.5 189.1 205.3 188 205.3 186.5C205.2 185 206.3 183.9 207.7 183.9ZM209.8 186.4C209.8 185.3 208.9 184.4 207.8 184.4C206.7 184.4 205.8 185.3 205.8 186.4C205.8 187.5 206.7 188.4 207.8 188.4C208.9 188.4 209.8 187.5 209.8 186.4Z" fill="#F8F8F8"/>
<path d="M212.3 187.7C212.3 186.7 212.6 185.7 213 185C213.5 184.3 214.2 183.8 214.9 183.8C215.7 183.8 216.4 184.3 216.8 185C217.3 185.7 217.6 186.7 217.6 187.7C217.6 188.7 217.3 189.7 216.9 190.4C216.4 191.1 215.7 191.6 215 191.6C214.2 191.6 213.5 191.1 213.1 190.4C212.6 189.7 212.3 188.8 212.3 187.7ZM212.8 187.7C212.8 188.7 213.1 189.5 213.5 190.1C213.9 190.7 214.4 191 215 191C215.6 191 216.1 190.7 216.5 190.1C216.9 189.5 217.2 188.6 217.2 187.7C217.2 186.7 216.9 185.9 216.5 185.3C216.1 184.7 215.6 184.4 215 184.4C214.4 184.4 213.9 184.7 213.5 185.3C213.1 185.9 212.8 186.8 212.8 187.7Z" fill="#F8F8F8"/>
<path d="M221.3 184.6L220.2 185.2H220.1C220 185.2 219.9 185.1 219.9 185.1C219.8 185 219.9 184.8 220 184.7L221.5 183.8C221.6 183.7 221.8 183.8 221.9 183.9C221.9 184 221.9 184 221.9 184.1V191.2C221.9 191.3 221.8 191.5 221.6 191.5C221.5 191.5 221.3 191.4 221.3 191.2V184.6Z" fill="#F8F8F8"/>
<path d="M223.7 191.1L227.3 187.8C227.7 187.4 228 186.9 228 186.3C228 185.8 227.8 185.3 227.5 185C227.1 184.6 226.6 184.3 226 184.3C225.5 184.3 225 184.5 224.6 184.8L224.2 185.1C224.1 185.2 223.9 185.2 223.8 185.1C223.7 185 223.7 184.8 223.8 184.7L224.2 184.3C224.7 183.9 225.3 183.6 225.9 183.6C226.6 183.6 227.3 183.9 227.8 184.4C228.3 184.9 228.5 185.5 228.5 186.1C228.5 186.8 228.2 187.5 227.7 188L224.6 190.8H228.3C228.4 190.8 228.6 190.9 228.6 191.1C228.6 191.2 228.5 191.4 228.3 191.4H224C223.9 191.4 223.8 191.4 223.8 191.3C223.6 191.4 223.6 191.2 223.7 191.1Z" fill="#F8F8F8"/>
<path d="M241.6 184.3L239.6 186.4C240.1 186.5 240.6 186.7 240.9 187.1C241.4 187.6 241.7 188.3 241.7 189C241.7 189.7 241.4 190.4 240.9 190.9C240.4 191.4 239.7 191.7 239 191.7C238.3 191.7 237.7 191.4 237.1 190.9C237 190.8 237 190.6 237.1 190.5C237.2 190.4 237.4 190.4 237.5 190.5C237.9 190.9 238.4 191.1 239 191.1C239.5 191.1 240.1 190.9 240.5 190.5C240.9 190.1 241.1 189.6 241.1 189C241.1 188.5 240.9 187.9 240.5 187.5C240.1 187.1 239.6 186.9 239 186.9C238.9 186.9 238.8 186.9 238.8 186.8C238.7 186.7 238.7 186.5 238.8 186.4L240.7 184.4H237.7C237.5 184.4 237.4 184.3 237.4 184.1C237.4 183.9 237.5 183.8 237.7 183.8H241.3C241.5 183.8 241.6 183.9 241.6 184.1C241.7 184.1 241.7 184.1 241.6 184.3C241.7 184.2 241.7 184.2 241.6 184.3Z" fill="#F8F8F8"/>
<path d="M248.2 189.9H244C243.9 189.9 243.9 189.9 243.8 189.8C243.7 189.7 243.7 189.5 243.8 189.4L248.3 183.8C248.4 183.7 248.6 183.7 248.7 183.8L248.8 183.9V189.2H249.3C249.5 189.2 249.6 189.3 249.6 189.5C249.6 189.6 249.5 189.8 249.3 189.8H248.8V191.1C248.8 191.2 248.7 191.4 248.5 191.4C248.4 191.4 248.2 191.3 248.2 191.1V189.9ZM248.2 189.4V184.8L244.5 189.4H248.2Z" fill="#F8F8F8"/>
<path d="M251.3 190.8C251.2 190.7 251.2 190.5 251.3 190.4C251.4 190.3 251.6 190.3 251.7 190.4C252.1 190.8 252.6 191 253.2 191C253.7 191 254.3 190.8 254.7 190.4C255.1 190 255.3 189.5 255.3 188.9C255.3 188.4 255.1 187.8 254.7 187.4C254.3 187 253.8 186.8 253.2 186.8C252.7 186.8 252.1 187 251.7 187.4C251.6 187.5 251.4 187.5 251.3 187.4L251.2 187.3V187.2C251.2 187.2 251.2 187.2 251.2 187.1L251.6 184C251.6 183.9 251.6 183.8 251.7 183.8C251.7 183.8 251.8 183.7 251.9 183.7H255.5C255.7 183.7 255.8 183.8 255.8 184C255.8 184.2 255.7 184.3 255.5 184.3H252.1L251.8 186.6C252.2 186.4 252.7 186.2 253.1 186.2C253.8 186.2 254.4 186.4 255 187C255.5 187.5 255.8 188.2 255.8 188.9C255.8 189.6 255.6 190.3 255 190.8C254.5 191.3 253.8 191.6 253.1 191.6C252.5 191.5 251.8 191.3 251.3 190.8Z" fill="#F8F8F8"/>
<path d="M258.7 185.4C259.2 184.5 260.1 183.8 261.4 183.7C261.5 183.7 261.7 183.8 261.7 184C261.7 184.2 261.6 184.3 261.4 184.3C260.3 184.3 259.6 184.9 259.1 185.7C258.8 186.2 258.7 186.7 258.5 187.3C259 186.8 259.7 186.4 260.4 186.4C261.8 186.4 263 187.5 263 189C263 190.4 261.9 191.6 260.4 191.6C259 191.6 257.9 190.5 257.8 189.1C257.8 188.9 257.8 188.8 257.8 188.6C257.9 187.5 258.1 186.3 258.7 185.4ZM258.5 189C258.5 189.1 258.5 189.1 258.5 189.1V189.2C258.6 190.2 259.5 191 260.5 191C261.6 191 262.5 190.1 262.5 189C262.5 187.9 261.6 187 260.4 187C259.4 186.9 258.5 187.8 258.5 189Z" fill="#F8F8F8"/>
<path d="M210.496 205.012L142.596 205.189L142.605 208.489L210.505 208.312L210.496 205.012Z" fill="#263238"/>
<path d="M190.596 212.439L142.596 212.563L142.605 215.863L190.605 215.739L190.596 212.439Z" fill="#263238"/>
<path d="M234.897 149.157L201.097 149.244L201.105 152.544L234.905 152.457L234.897 149.157Z" fill="#263238"/>
<path d="M131.5 119.4C131.5 119.3 131.6 119.1 131.8 119.1H133.8C134.9 119.1 135.9 120 135.9 121.2C135.9 122.3 135 123.3 133.8 123.3H132V126.2C132 126.3 131.9 126.5 131.7 126.5C131.6 126.5 131.4 126.4 131.4 126.2V119.4H131.5ZM133.8 122.9C134.7 122.9 135.4 122.2 135.4 121.3C135.4 120.4 134.7 119.7 133.8 119.7H132V122.9H133.8Z" fill="#263238"/>
<path d="M141.8 121.6V126.2C141.8 126.3 141.7 126.5 141.5 126.5C141.4 126.5 141.2 126.4 141.2 126.2V125.4C140.8 126 140.1 126.4 139.3 126.4C138 126.4 136.9 125.2 136.9 123.8C136.9 122.4 138 121.2 139.3 121.2C140.1 121.2 140.8 121.6 141.2 122.2V121.4C141.2 121.3 141.3 121.1 141.5 121.1C141.7 121.4 141.8 121.5 141.8 121.6ZM141.3 123.9C141.3 122.8 140.4 121.8 139.4 121.8C138.4 121.8 137.5 122.7 137.5 123.9C137.5 125 138.4 126 139.4 126C140.4 126 141.3 125.1 141.3 123.9Z" fill="#263238"/>
<path d="M143.9 121.6C143.9 121.5 144 121.4 144.1 121.4C144.2 121.4 144.4 121.5 144.4 121.6V124.4C144.4 125.3 145.1 126 146 126C146.9 126 147.6 125.3 147.6 124.4V121.6V121.5L147.7 121.4C147.7 121.4 147.8 121.4 147.8 121.5L147.9 121.6V121.7V124.5V124.6V126.2C147.9 127.5 146.8 128.6 145.5 128.6C145.1 128.6 144.8 128.5 144.4 128.4C144.3 128.3 144.2 128.2 144.3 128.1C144.4 128 144.5 127.9 144.6 128C144.9 128.1 145.1 128.2 145.4 128.2C146.5 128.2 147.3 127.4 147.3 126.3V126C146.9 126.4 146.4 126.7 145.7 126.7C144.6 126.7 143.6 125.8 143.6 124.6V121.6H143.9Z" fill="#263238"/>
<path d="M157.7 123.5C157.7 122.6 157 121.9 156.1 121.9C155.2 121.9 154.5 122.6 154.5 123.5V126.3C154.5 126.4 154.4 126.4 154.4 126.4H154.3C154.3 126.4 154.3 126.4 154.2 126.4V123.6C154.2 122.7 153.5 122 152.6 122C151.7 122 151 122.7 151 123.6V126.4C151 126.5 151 126.6 150.9 126.6C150.9 126.6 150.9 126.6 150.8 126.6C150.7 126.6 150.6 126.5 150.6 126.4V126.3V123.5V123.4V121.6C150.6 121.5 150.7 121.4 150.8 121.4C150.9 121.4 151.1 121.5 151.1 121.6V122.1C151.5 121.7 152 121.4 152.7 121.4C153.5 121.4 154.2 121.8 154.5 122.5C154.9 121.9 155.6 121.4 156.3 121.4C157.4 121.4 158.4 122.3 158.4 123.5V126.3C158.4 126.4 158.3 126.5 158.1 126.5C158 126.5 157.9 126.4 157.9 126.3V123.5H157.7Z" fill="#263238"/>
<path d="M160 124C160 122.6 161.1 121.4 162.5 121.4C163.8 121.4 164.9 122.4 165 123.8C165 123.9 164.9 124 164.7 124H160.5C160.6 125.1 161.4 126 162.5 126C163.2 126 163.8 125.6 164.1 125.1C164.2 125 164.3 125 164.4 125C164.5 125.1 164.6 125.2 164.5 125.4C164.1 126.1 163.3 126.6 162.4 126.6C161.1 126.5 160 125.4 160 124ZM160.5 123.5H164.4C164.2 122.5 163.4 121.8 162.5 121.8C161.5 121.9 160.7 122.6 160.5 123.5Z" fill="#263238"/>
<path d="M170.4 123.5C170.4 122.6 169.7 121.9 168.8 121.9C167.9 121.9 167.2 122.6 167.2 123.5V126.3C167.2 126.3 167.2 126.4 167.1 126.4C167.1 126.5 167 126.5 166.9 126.5H166.8C166.7 126.5 166.7 126.4 166.6 126.4V126.3V123.5V123.4V121.7C166.6 121.6 166.7 121.4 166.9 121.4C167 121.4 167.1 121.5 167.1 121.7V122.2C167.5 121.8 168 121.5 168.7 121.5C169.8 121.5 170.8 122.4 170.8 123.6V126.4C170.8 126.5 170.7 126.7 170.5 126.7C170.4 126.7 170.2 126.6 170.2 126.4V123.5H170.4Z" fill="#263238"/>
<path d="M174.9 121.6C174.9 121.7 174.8 121.9 174.6 121.9H174V125.6C174 125.9 174.3 126 174.4 126C174.5 126 174.7 126.1 174.7 126.3C174.7 126.4 174.6 126.6 174.4 126.6C173.9 126.6 173.5 126.2 173.5 125.7V122H172.9C172.6 122 172.6 121.9 172.6 121.7C172.6 121.6 172.6 121.4 172.9 121.4H173.5V119.5C173.5 119.4 173.6 119.2 173.8 119.2C173.9 119.2 174.1 119.3 174.1 119.5V121.4H174.8C174.8 121.4 174.9 121.5 174.9 121.6Z" fill="#263238"/>
<path d="M187.7 123.5C187.7 122.6 187 121.9 186.1 121.9C185.2 121.9 184.5 122.6 184.5 123.5V126.3C184.5 126.4 184.4 126.4 184.4 126.4H184.3C184.3 126.4 184.3 126.4 184.2 126.4V123.6C184.2 122.7 183.5 122 182.6 122C181.7 122 181 122.7 181 123.6V126.4C181 126.5 181 126.6 180.9 126.6C180.9 126.6 180.9 126.6 180.8 126.6C180.7 126.6 180.6 126.5 180.6 126.4V126.3V123.5V123.4V121.6C180.6 121.5 180.7 121.4 180.8 121.4C180.9 121.4 181.1 121.5 181.1 121.6V122.1C181.5 121.7 182 121.4 182.7 121.4C183.5 121.4 184.2 121.8 184.5 122.5C184.9 121.9 185.6 121.4 186.3 121.4C187.4 121.4 188.4 122.3 188.4 123.5V126.3C188.4 126.4 188.3 126.5 188.1 126.5C188 126.5 187.9 126.4 187.9 126.3V123.5H187.7Z" fill="#263238"/>
<path d="M190 124C190 122.6 191.1 121.4 192.5 121.4C193.8 121.4 194.9 122.4 195 123.8C195 123.9 194.9 124 194.7 124H190.5C190.6 125.1 191.4 126 192.5 126C193.2 126 193.8 125.6 194.1 125.1C194.2 125 194.3 125 194.4 125C194.5 125.1 194.6 125.2 194.5 125.4C194.1 126.1 193.3 126.6 192.4 126.6C191.1 126.5 190 125.4 190 124ZM190.5 123.5H194.4C194.2 122.5 193.4 121.8 192.5 121.8C191.5 121.9 190.7 122.6 190.5 123.5Z" fill="#263238"/>
<path d="M198.1 121.6C198.1 121.7 198 121.9 197.8 121.9H197.1V125.6C197.1 125.9 197.4 126 197.5 126C197.6 126 197.8 126.1 197.8 126.3C197.8 126.4 197.7 126.6 197.5 126.6C197 126.6 196.6 126.2 196.6 125.7V122H196C195.7 122 195.7 121.9 195.7 121.7C195.7 121.6 195.7 121.4 196 121.4H196.6V119.5C196.6 119.4 196.7 119.2 196.9 119.2C197 119.2 197.2 119.3 197.2 119.5V121.4H197.9C198 121.4 198.1 121.5 198.1 121.6Z" fill="#263238"/>
<path d="M204 123.4C204 122.5 203.3 121.9 202.4 121.9C201.5 121.9 200.8 122.5 200.8 123.4V126.2C200.8 126.3 200.7 126.3 200.6 126.3C200.5 126.3 200.5 126.3 200.4 126.2V126.1V126V123.2V123.1V119.2C200.4 119.1 200.5 118.9 200.7 118.9C200.8 118.9 201 119 201 119.2V121.9C201.4 121.4 202 121.1 202.6 121.1C203.8 121.1 204.7 121.9 204.7 123.1V125.9C204.7 126 204.6 126.2 204.4 126.2C204.3 126.2 204.2 126.1 204.2 125.9V123.4H204Z" fill="#263238"/>
<path d="M208.9 121.4C210.2 121.4 211.3 122.6 211.3 124C211.3 125.4 210.2 126.6 208.9 126.6C207.6 126.6 206.5 125.4 206.5 124C206.4 122.6 207.5 121.4 208.9 121.4ZM208.9 126C209.9 126 210.8 125.1 210.8 123.9C210.8 122.8 209.9 121.8 208.9 121.8C207.9 121.8 207 122.7 207 123.9C206.9 125.1 207.8 126 208.9 126Z" fill="#263238"/>
<path d="M217.3 125.5C216.9 126.1 216.1 126.5 215.3 126.5C213.9 126.5 212.8 125.4 212.8 124C212.8 122.6 213.9 121.4 215.3 121.4C216.1 121.4 216.8 121.8 217.3 122.4V119.5C217.3 119.4 217.4 119.2 217.6 119.2C217.7 119.2 217.8 119.3 217.8 119.5V123.9V124V126.3C217.8 126.4 217.7 126.6 217.6 126.6C217.5 126.6 217.3 126.5 217.3 126.3V125.5ZM217.3 124V123.8C217.3 122.7 216.4 121.8 215.3 121.8C214.2 121.8 213.3 122.7 213.3 123.9C213.3 125 214.2 125.9 215.3 125.9C216.4 126 217.3 125.1 217.3 124Z" fill="#263238"/>
<path d="M133.4 70.4999H131.2C131.1 70.4999 130.9 70.3999 130.9 70.1999C130.9 70.0999 131 69.8999 131.2 69.8999H136.1C136.2 69.8999 136.4 69.9999 136.4 70.1999C136.4 70.2999 136.3 70.4999 136.1 70.4999H133.9V76.9999C133.9 77.0999 133.8 77.2999 133.6 77.2999C133.5 77.2999 133.3 77.1999 133.3 76.9999V70.4999H133.4Z" fill="#263238"/>
<path d="M138.9 72.2C140.2 72.2 141.3 73.4 141.3 74.8C141.3 76.2 140.2 77.4 138.9 77.4C137.6 77.4 136.5 76.2 136.5 74.8C136.5 73.4 137.6 72.2 138.9 72.2ZM138.9 76.8C139.9 76.8 140.8 75.9 140.8 74.7C140.8 73.6 139.9 72.6 138.9 72.6C137.9 72.6 137 73.5 137 74.7C137 75.9 137.9 76.8 138.9 76.8Z" fill="#263238"/>
<path d="M144.9 72.4999C144.9 72.5999 144.8 72.7999 144.6 72.7999H144V76.4999C144 76.7999 144.3 76.8999 144.4 76.8999C144.5 76.8999 144.7 76.9999 144.7 77.1999C144.7 77.2999 144.6 77.4999 144.4 77.4999C143.9 77.4999 143.5 77.0999 143.5 76.5999V72.8999H142.9C142.6 72.8999 142.6 72.7999 142.6 72.5999C142.6 72.4999 142.6 72.2999 142.9 72.2999H143.5V70.3999C143.5 70.2999 143.6 70.0999 143.8 70.0999C143.9 70.0999 144.1 70.1999 144.1 70.3999V72.2999H144.8C144.7 72.1999 144.9 72.3999 144.9 72.4999Z" fill="#263238"/>
<path d="M151.2 72.5V77.1C151.2 77.2 151.1 77.4 150.9 77.4C150.8 77.4 150.6 77.3 150.6 77.1V76.3C150.2 76.9 149.5 77.3 148.7 77.3C147.4 77.3 146.3 76.1 146.3 74.7C146.3 73.3 147.4 72.1 148.7 72.1C149.5 72.1 150.2 72.5 150.6 73.1V72.3C150.6 72.2 150.7 72 150.9 72C151.1 72.2 151.2 72.3 151.2 72.5ZM150.7 74.8C150.7 73.7 149.8 72.7 148.8 72.7C147.8 72.7 146.9 73.6 146.9 74.8C146.9 75.9 147.8 76.9 148.8 76.9C149.9 76.8 150.7 75.9 150.7 74.8Z" fill="#263238"/>
<path d="M153.6 70.3C153.6 70.2 153.7 70 153.9 70C154 70 154.2 70.1 154.2 70.3V77.1C154.2 77.2 154.1 77.4 153.9 77.4C153.8 77.4 153.6 77.3 153.6 77.1V70.3Z" fill="#263238"/>
<path d="M159.3 74.9V74.8V74.7V72.5C159.3 72.4 159.4 72.2 159.6 72.2C159.7 72.2 159.9 72.3 159.9 72.5V73.2C160.3 72.6 161 72.2 161.8 72.2C163.2 72.2 164.3 73.3 164.3 74.7C164.3 76.1 163.2 77.2 161.8 77.2C161 77.2 160.3 76.8 159.9 76.2V79.1C159.9 79.2 159.8 79.4 159.6 79.4C159.5 79.4 159.3 79.3 159.3 79.1V74.9ZM159.8 74.8C159.8 75.9 160.7 76.8 161.7 76.8C162.8 76.8 163.7 75.9 163.7 74.8C163.7 73.7 162.8 72.8 161.7 72.8C160.7 72.7 159.9 73.6 159.8 74.8Z" fill="#263238"/>
<path d="M166.2 72.5C166.2 72.4 166.3 72.2 166.5 72.2C166.6 72.2 166.7 72.3 166.7 72.5V73.6C166.7 73.6 166.7 73.5 166.8 73.5C167.2 72.9 167.9 72.2 168.8 72.2C168.9 72.2 169.1 72.3 169.1 72.5C169.1 72.6 169 72.8 168.8 72.8C168.1 72.8 167.7 73.2 167.3 73.6C167 74.1 166.8 74.6 166.7 74.8V74.9V77.1C166.7 77.2 166.6 77.4 166.5 77.4C166.4 77.4 166.2 77.3 166.2 77.1V72.5Z" fill="#263238"/>
<path d="M170.8 70.8C170.8 70.7 170.9 70.5 171.1 70.5C171.2 70.5 171.4 70.6 171.4 70.8V71C171.4 71.1 171.3 71.3 171.1 71.3C171 71.3 170.8 71.2 170.8 71V70.8ZM170.8 72.5C170.8 72.4 170.9 72.2 171.1 72.2C171.2 72.2 171.4 72.3 171.4 72.5V77.1C171.4 77.2 171.3 77.4 171.1 77.4C171 77.4 170.8 77.3 170.8 77.1V72.5Z" fill="#263238"/>
<path d="M173.3 74.7998C173.3 73.3998 174.5 72.2998 175.9 72.2998C176.5 72.2998 177.1 72.4998 177.5 72.8998C177.6 72.9998 177.6 73.0998 177.5 73.1998C177.4 73.2998 177.3 73.2998 177.2 73.1998C176.8 72.8998 176.4 72.6998 175.9 72.6998C174.7 72.6998 173.8 73.5998 173.8 74.7998C173.8 75.8998 174.7 76.8998 175.9 76.8998C176.4 76.8998 176.9 76.6998 177.2 76.4998C177.3 76.3998 177.5 76.3998 177.5 76.4998C177.6 76.5998 177.6 76.7998 177.4 76.8998C177 77.1998 176.4 77.3998 175.8 77.3998C174.5 77.2998 173.3 76.1998 173.3 74.7998Z" fill="#263238"/>
<path d="M179.2 74.8C179.2 73.4 180.3 72.2 181.7 72.2C183 72.2 184.1 73.2 184.2 74.6C184.2 74.7 184.1 74.8 183.9 74.8H179.7C179.8 75.9 180.6 76.8 181.7 76.8C182.4 76.8 183 76.4 183.3 75.9C183.4 75.8 183.5 75.8 183.6 75.8C183.7 75.9 183.8 76 183.7 76.2C183.3 76.9 182.5 77.4 181.6 77.4C180.3 77.3 179.2 76.2 179.2 74.8ZM179.7 74.4H183.6C183.4 73.4 182.6 72.7 181.7 72.7C180.7 72.7 179.9 73.4 179.7 74.4Z" fill="#263238"/>
<path d="M137.5 84.1001C138 84.1001 138.4 84.5001 138.4 85.0001V85.5001C139.6 85.6001 140.7 86.0001 141.6 86.6001C141.9 86.8001 142.2 87.1001 142.2 87.6001C142.2 88.2001 141.7 88.7001 141 88.7001C140.8 88.7001 140.6 88.6001 140.4 88.5001C139.7 88.1001 139 87.7001 138.2 87.6001V91.6001C141.4 92.4001 142.7 93.7001 142.7 95.9001C142.7 98.2001 140.9 99.7001 138.2 100V101.3C138.2 101.8 137.8 102.2 137.3 102.2C136.8 102.2 136.4 101.8 136.4 101.3V100C134.8 99.8001 133.4 99.3001 132.1 98.4001C131.7 98.2001 131.5 97.8001 131.5 97.4001C131.5 96.8001 132 96.3001 132.6 96.3001C132.9 96.3001 133.1 96.4001 133.3 96.5001C134.3 97.2001 135.2 97.7001 136.4 97.9001V93.8001C133.3 93.0001 131.9 91.9001 131.9 89.5001C131.9 87.3001 133.7 85.7001 136.3 85.5001V85.0001C136.6 84.5001 137 84.1001 137.5 84.1001ZM136.6 91.2001V87.5001C135.3 87.6001 134.6 88.3001 134.6 89.3001C134.6 90.2001 135 90.7001 136.6 91.2001ZM138.3 94.1001V97.9001C139.6 97.8001 140.4 97.1001 140.4 96.1001C140.4 95.2001 139.9 94.6001 138.3 94.1001Z" fill="#24CCA7"/>
<path d="M154.8 95.1001C154.8 97.8001 152.6 100.1 149.8 100.1C147 100.1 144.8 97.9001 144.8 95.1001C144.8 93.4001 145.7 91.8001 147 90.9001C146.6 90.3001 146.3 89.6001 146.3 88.8001C146.3 86.9001 147.8 85.4001 149.8 85.4001C151.7 85.4001 153.2 86.9001 153.2 88.8001C153.2 89.6001 152.9 90.3001 152.5 90.9001C153.9 91.8001 154.8 93.3001 154.8 95.1001ZM152.5 95.1001C152.5 93.6001 151.3 92.4001 149.8 92.4001C148.3 92.4001 147.1 93.6001 147.1 95.1001C147.1 96.6001 148.3 97.8001 149.8 97.8001C151.3 97.8001 152.5 96.5001 152.5 95.1001ZM148.6 88.8001C148.6 89.4001 149.1 90.0001 149.8 90.0001C150.4 90.0001 150.9 89.5001 150.9 88.8001C150.9 88.2001 150.4 87.7001 149.8 87.7001C149.1 87.7001 148.6 88.2001 148.6 88.8001Z" fill="#24CCA7"/>
<path d="M158.1 90.5001C158.1 87.7001 160.4 85.4001 163.2 85.4001C165.8 85.4001 168 87.4001 168.2 89.9001C168.2 90.3001 168.2 90.7001 168.2 91.1001C168.2 92.5001 168 94.0001 167.5 95.4001C167 96.8001 166.1 98.1001 164.8 99.0001C163.9 99.6001 162.9 99.9001 161.7 100C161.1 100 160.5 99.5001 160.5 98.9001C160.5 98.3001 161 97.8001 161.6 97.7001C162.4 97.7001 163 97.4001 163.6 97.1001C164.1 96.7001 164.6 96.3001 164.9 95.6001C165 95.4001 165.1 95.2001 165.2 95.1001C164.6 95.4001 163.9 95.5001 163.2 95.5001C160.3 95.5001 158.1 93.3001 158.1 90.5001ZM160.4 90.5001C160.4 92.0001 161.6 93.3001 163.2 93.3001C164.7 93.3001 165.9 92.0001 165.9 90.5001C165.9 89.0001 164.7 87.8001 163.2 87.8001C161.6 87.7001 160.4 88.9001 160.4 90.5001Z" fill="#24CCA7"/>
<path d="M171.5 101.9C172.5 101.6 173 100.9 172.9 100C172.3 99.8 171.7 99.3 171.7 98.6V98.4C171.7 97.6 172.3 97 173.1 97C174 97 174.6 97.7 174.6 98.8V99C174.6 100.4 174.2 101.4 173.6 102.1C173 102.6 172.2 103 171.6 103C171.2 103 171 102.7 171 102.4C171 102.2 171.2 102 171.5 101.9Z" fill="#24CCA7"/>
<path d="M176.1 90.5001C176.1 87.7001 178.4 85.4001 181.2 85.4001C183.8 85.4001 186 87.4001 186.2 89.9001C186.2 90.3001 186.2 90.7001 186.2 91.1001C186.2 92.5001 186 94.0001 185.5 95.4001C185 96.8001 184.1 98.1001 182.8 99.0001C181.9 99.6001 180.9 99.9001 179.7 100C179.1 100 178.5 99.5001 178.5 98.9001C178.5 98.3001 179 97.8001 179.6 97.7001C180.4 97.7001 181 97.4001 181.6 97.1001C182.1 96.7001 182.6 96.3001 182.9 95.6001C183 95.4001 183.1 95.2001 183.2 95.1001C182.6 95.4001 181.9 95.5001 181.2 95.5001C178.4 95.5001 176.1 93.3001 176.1 90.5001ZM178.4 90.5001C178.4 92.0001 179.6 93.3001 181.2 93.3001C182.7 93.3001 183.9 92.0001 183.9 90.5001C183.9 89.0001 182.7 87.8001 181.2 87.8001C179.6 87.7001 178.4 88.9001 178.4 90.5001Z" fill="#24CCA7"/>
<path d="M189.5 90.5001C189.5 87.7001 191.8 85.4001 194.6 85.4001C197.2 85.4001 199.4 87.4001 199.6 89.9001C199.6 90.3001 199.6 90.7001 199.6 91.1001C199.6 92.5001 199.4 94.0001 198.9 95.4001C198.4 96.8001 197.5 98.1001 196.2 99.0001C195.3 99.6001 194.3 99.9001 193.1 100C192.5 100 191.9 99.5001 191.9 98.9001C191.9 98.3001 192.4 97.8001 193 97.7001C193.8 97.7001 194.4 97.4001 195 97.1001C195.5 96.7001 196 96.3001 196.3 95.6001C196.4 95.4001 196.5 95.2001 196.6 95.1001C196 95.4001 195.3 95.5001 194.6 95.5001C191.8 95.5001 189.5 93.3001 189.5 90.5001ZM191.8 90.5001C191.8 92.0001 193 93.3001 194.6 93.3001C196.1 93.3001 197.3 92.0001 197.3 90.5001C197.3 89.0001 196.1 87.8001 194.6 87.8001C193 87.7001 191.8 88.9001 191.8 90.5001Z" fill="#24CCA7"/>
<path d="M166.9 42.4001C166.9 42.3001 167 42.1001 167.2 42.1001H169.2C170.3 42.1001 171.3 43.0001 171.3 44.2001C171.3 45.3001 170.4 46.3001 169.2 46.3001H167.4V49.2001C167.4 49.3001 167.3 49.5001 167.1 49.5001C167 49.5001 166.8 49.4001 166.8 49.2001V42.4001H166.9ZM169.2 45.9001C170.1 45.9001 170.8 45.2001 170.8 44.3001C170.8 43.4001 170.1 42.7001 169.2 42.7001H167.4V45.9001H169.2Z" fill="#263238"/>
<path d="M177.1 44.6001V49.2001C177.1 49.3001 177 49.5001 176.8 49.5001C176.7 49.5001 176.5 49.4001 176.5 49.2001V48.4001C176.1 49.0001 175.4 49.4001 174.6 49.4001C173.3 49.4001 172.2 48.2001 172.2 46.8001C172.2 45.4001 173.3 44.2001 174.6 44.2001C175.4 44.2001 176.1 44.6001 176.5 45.2001V44.4001C176.5 44.3001 176.6 44.1001 176.8 44.1001C177 44.4001 177.1 44.5001 177.1 44.6001ZM176.6 46.9001C176.6 45.8001 175.7 44.8001 174.7 44.8001C173.7 44.8001 172.8 45.7001 172.8 46.9001C172.8 48.0001 173.7 49.0001 174.7 49.0001C175.8 49.0001 176.6 48.1001 176.6 46.9001Z" fill="#263238"/>
<path d="M179.2 44.6001C179.2 44.5001 179.3 44.4001 179.4 44.4001C179.5 44.4001 179.7 44.5001 179.7 44.6001V47.4001C179.7 48.3001 180.4 49.0001 181.3 49.0001C182.2 49.0001 182.9 48.3001 182.9 47.4001V44.6001V44.5001L183 44.4001C183 44.4001 183.1 44.4001 183.1 44.5001L183.2 44.6001V44.7001V47.5001V47.6001V49.2001C183.2 50.5001 182.1 51.6001 180.8 51.6001C180.4 51.6001 180.1 51.5001 179.7 51.4001C179.6 51.3001 179.5 51.2001 179.6 51.1001C179.7 51.0001 179.8 50.9001 179.9 51.0001C180.2 51.1001 180.4 51.2001 180.7 51.2001C181.8 51.2001 182.6 50.4001 182.6 49.3001V49.0001C182.2 49.4001 181.7 49.7001 181 49.7001C179.9 49.7001 178.9 48.8001 178.9 47.6001V44.6001H179.2Z" fill="#263238"/>
<path d="M193.1 46.5001C193.1 45.6001 192.4 44.9001 191.5 44.9001C190.6 44.9001 189.9 45.6001 189.9 46.5001V49.3001C189.9 49.4001 189.8 49.4001 189.8 49.4001H189.7C189.7 49.4001 189.7 49.4001 189.6 49.4001V46.6001C189.6 45.7001 188.9 45.0001 188 45.0001C187.1 45.0001 186.4 45.7001 186.4 46.6001V49.4001C186.4 49.5001 186.4 49.6001 186.3 49.6001C186.3 49.6001 186.3 49.6001 186.2 49.6001C186.1 49.6001 186 49.5001 186 49.4001V49.3001V46.5001V46.4001V44.6001C186 44.5001 186.1 44.4001 186.2 44.4001C186.3 44.4001 186.5 44.5001 186.5 44.6001V45.1001C186.9 44.7001 187.4 44.4001 188.1 44.4001C188.9 44.4001 189.6 44.8001 189.9 45.5001C190.3 44.9001 191 44.4001 191.7 44.4001C192.8 44.4001 193.8 45.3001 193.8 46.5001V49.3001C193.8 49.4001 193.7 49.5001 193.5 49.5001C193.4 49.5001 193.3 49.4001 193.3 49.3001V46.5001H193.1Z" fill="#263238"/>
<path d="M195.3 46.9001C195.3 45.5001 196.4 44.3 197.8 44.3C199.1 44.3 200.2 45.3001 200.3 46.7001C200.3 46.8001 200.2 46.9001 200 46.9001H195.8C195.9 48.0001 196.7 48.9001 197.8 48.9001C198.5 48.9001 199.1 48.5 199.4 48C199.5 47.9 199.6 47.9001 199.7 47.9001C199.8 48.0001 199.9 48.1 199.8 48.3C199.4 49 198.6 49.5 197.7 49.5C196.4 49.5 195.3 48.3001 195.3 46.9001ZM195.9 46.5H199.8C199.6 45.5 198.8 44.8 197.9 44.8C196.9 44.9 196.1 45.6 195.9 46.5Z" fill="#263238"/>
<path d="M205.7 46.5001C205.7 45.6001 205 44.9001 204.1 44.9001C203.2 44.9001 202.5 45.6001 202.5 46.5001V49.3001C202.5 49.3001 202.5 49.4001 202.4 49.4001C202.4 49.5001 202.3 49.5001 202.2 49.5001H202.1C202 49.5001 202 49.4001 201.9 49.4001V49.3001V46.5001V46.4001V44.7001C201.9 44.6001 202 44.4001 202.2 44.4001C202.3 44.4001 202.4 44.5001 202.4 44.7001V45.2001C202.8 44.8001 203.3 44.5001 204 44.5001C205.1 44.5001 206.1 45.4001 206.1 46.6001V49.4001C206.1 49.5001 206 49.7001 205.8 49.7001C205.7 49.7001 205.6 49.6001 205.6 49.4001V46.5001H205.7Z" fill="#263238"/>
<path d="M210.3 44.6002C210.3 44.7002 210.2 44.9002 210 44.9002H209.3V48.6002C209.3 48.9002 209.6 49.0002 209.7 49.0002C209.8 49.0002 210 49.1002 210 49.3002C210 49.4002 209.9 49.6002 209.7 49.6002C209.2 49.6002 208.8 49.2002 208.8 48.7002V45.0002H208.2C208 45.0002 208 44.9002 208 44.7002C208 44.6002 208 44.4002 208.2 44.4002H208.8V42.5002C208.8 42.4002 208.9 42.2002 209 42.2002C209.1 42.2002 209.3 42.3002 209.3 42.5002V44.4002H210C210.1 44.4002 210.3 44.5002 210.3 44.6002Z" fill="#263238"/>
<path d="M216.2 49.5001C216 49.5001 215.9 49.4001 215.9 49.2001V42.4001C215.9 42.3001 216 42.1001 216.2 42.1001H217.5C219.5 42.1001 221.2 43.7001 221.2 45.8001C221.2 47.8001 219.6 49.4001 217.5 49.4001H216.2V49.5001ZM217.5 49.0001C219.2 49.0001 220.6 47.6001 220.6 45.9001C220.6 44.2001 219.2 42.8001 217.5 42.7001H216.4V49.0001H217.5Z" fill="#263238"/>
<path d="M226.6 44.6001V49.2001C226.6 49.3001 226.5 49.5001 226.4 49.5001C226.3 49.5001 226.1 49.4001 226.1 49.2001V48.4001C225.7 49.0001 225 49.4001 224.2 49.4001C222.9 49.4001 221.8 48.2001 221.8 46.8001C221.8 45.4001 222.9 44.2001 224.2 44.2001C225 44.2001 225.7 44.6001 226.1 45.2001V44.4001C226.1 44.3001 226.2 44.1001 226.4 44.1001C226.5 44.4001 226.6 44.5001 226.6 44.6001ZM226.1 46.9001C226.1 45.8001 225.2 44.8001 224.2 44.8001C223.2 44.8001 222.3 45.7001 222.3 46.9001C222.3 48.0001 223.2 49.0001 224.2 49.0001C225.3 49.0001 226.1 48.1001 226.1 46.9001Z" fill="#263238"/>
<path d="M230.6 44.6002C230.6 44.7002 230.5 44.9002 230.3 44.9002H229.6V48.6002C229.6 48.9002 229.9 49.0002 230 49.0002C230.1 49.0002 230.3 49.1002 230.3 49.3002C230.3 49.4002 230.2 49.6002 230 49.6002C229.5 49.6002 229.1 49.2002 229.1 48.7002V45.0002H228.5C228.3 45.0002 228.3 44.9002 228.3 44.7002C228.3 44.6002 228.3 44.4002 228.5 44.4002H229.1V42.5002C229.1 42.4002 229.2 42.2002 229.3 42.2002C229.4 42.2002 229.6 42.3002 229.6 42.5002V44.4002H230.3C230.5 44.4002 230.6 44.5002 230.6 44.6002Z" fill="#263238"/>
<path d="M237 44.6001V49.2001C237 49.3001 236.9 49.5001 236.7 49.5001C236.6 49.5001 236.5 49.4001 236.5 49.2001V48.4001C236.1 49.0001 235.4 49.4001 234.6 49.4001C233.3 49.4001 232.2 48.2001 232.2 46.8001C232.2 45.4001 233.3 44.2001 234.6 44.2001C235.4 44.2001 236.1 44.6001 236.5 45.2001V44.4001C236.5 44.3001 236.6 44.1001 236.7 44.1001C236.9 44.4001 237 44.5001 237 44.6001ZM236.5 46.9001C236.5 45.8001 235.6 44.8001 234.6 44.8001C233.6 44.8001 232.7 45.7001 232.7 46.9001C232.7 48.0001 233.6 49.0001 234.6 49.0001C235.6 49.0001 236.5 48.1001 236.5 46.9001Z" fill="#263238"/>
<path d="M136.1 48.7999L132.6 45.5999L136.1 42.3999L136.8 43.0999L134.2 45.5999L136.8 48.0999L136.1 48.7999Z" fill="#4A56E2"/>
<path d="M135.5 51.2C132.4 51.2 129.9 48.7 129.9 45.6C129.9 42.5 132.4 40 135.5 40C138.6 40 141.1 42.5 141.1 45.6C141.1 48.7 138.6 51.2 135.5 51.2ZM135.5 41C133 41 130.9 43 130.9 45.6C130.9 48.1 132.9 50.2 135.5 50.2C138 50.2 140.1 48.2 140.1 45.6C140.1 43.1 138 41 135.5 41Z" fill="#4A56E2"/>
<path d="M268.6 241.5C274.841 241.5 279.9 236.441 279.9 230.2C279.9 223.959 274.841 218.9 268.6 218.9C262.359 218.9 257.3 223.959 257.3 230.2C257.3 236.441 262.359 241.5 268.6 241.5Z" fill="#FFC727"/>
<path d="M265.3 237.4L261.1 230.9L262.9 229.7L265.5 233.9L273.8 223.5L275.4 224.8L265.3 237.4Z" fill="white"/>
<path d="M205.3 242C205.3 243.8 203.8 245.3 202 245.3C200.2 245.3 198.7 243.8 198.7 242C198.7 240.2 200.2 238.7 202 238.7C203.8 238.7 205.3 240.2 205.3 242Z" fill="#4A56E2"/>
<path d="M186.7 242C186.7 243.3 185.6 244.4 184.3 244.4C183 244.4 181.9 243.3 181.9 242C181.9 240.7 183 239.6 184.3 239.6C185.6 239.6 186.7 240.7 186.7 242Z" fill="#EBEBEB"/>
<path d="M222.2 242C222.2 243.3 221.1 244.4 219.8 244.4C218.5 244.4 217.4 243.3 217.4 242C217.4 240.7 218.5 239.6 219.8 239.6C221.1 239.6 222.2 240.7 222.2 242Z" fill="#EBEBEB"/>
<path d="M131.2 265.2C131.3 265.1 131.4 265.1 131.5 265.2C132 265.6 133 266.2 133.9 266.1C134.5 266.1 135.1 265.9 135.5 265.6C135.9 265.3 136.1 264.9 136.1 264.5C136.1 264.1 135.9 263.8 135.5 263.5C135.1 263.2 134.5 263 133.8 262.9C133.1 262.8 132.5 262.6 132.1 262.3C131.7 262 131.3 261.6 131.3 261C131.3 260.4 131.6 260 132.1 259.6C132.6 259.3 133.2 259.1 133.9 259.1C134.9 259.1 135.6 259.6 136.2 259.9C136.3 260 136.3 260.1 136.3 260.2C136.2 260.3 136.1 260.3 136 260.3C135.4 259.9 134.8 259.5 134 259.5C133.4 259.5 132.9 259.7 132.5 259.9C132.1 260.2 131.9 260.5 131.9 260.9C131.9 261.3 132.1 261.5 132.4 261.8C132.8 262.1 133.3 262.2 134 262.4C134.7 262.5 135.4 262.7 135.9 263.1C136.4 263.4 136.7 263.9 136.7 264.5C136.7 265.1 136.4 265.6 135.9 266C135.4 266.4 134.8 266.6 134 266.6C132.9 266.6 131.9 266 131.3 265.5C131.1 265.5 131.1 265.3 131.2 265.2Z" fill="#263238"/>
<path d="M142.7 261.8V266.4C142.7 266.5 142.6 266.7 142.4 266.7C142.3 266.7 142.1 266.6 142.1 266.4V265.6C141.7 266.2 141 266.6 140.2 266.6C138.9 266.6 137.8 265.4 137.8 264C137.8 262.6 138.9 261.4 140.2 261.4C141 261.4 141.7 261.8 142.1 262.4V261.6C142.1 261.5 142.2 261.3 142.4 261.3C142.5 261.5 142.7 261.6 142.7 261.8ZM142.2 264.1C142.2 263 141.3 262 140.3 262C139.3 262 138.4 262.9 138.4 264.1C138.4 265.2 139.3 266.2 140.3 266.2C141.3 266.1 142.2 265.2 142.2 264.1Z" fill="#263238"/>
<path d="M146.3 266.6L146.2 266.5L144.3 261.9C144.2 261.8 144.3 261.6 144.4 261.6C144.5 261.5 144.7 261.6 144.7 261.7L146.4 265.7L148.1 261.7C148.1 261.6 148.3 261.5 148.4 261.6C148.5 261.7 148.6 261.8 148.5 261.9L146.6 266.4C146.6 266.4 146.6 266.5 146.5 266.5C146.5 266.6 146.4 266.6 146.3 266.6C146.4 266.6 146.4 266.6 146.3 266.6Z" fill="#263238"/>
<path d="M150 264.1C150 262.7 151.1 261.5 152.5 261.5C153.8 261.5 154.9 262.5 155 263.9C155 264 154.9 264.1 154.7 264.1H150.5C150.6 265.2 151.4 266.1 152.5 266.1C153.2 266.1 153.8 265.7 154.1 265.2C154.2 265.1 154.3 265.1 154.4 265.1C154.5 265.2 154.6 265.3 154.5 265.5C154.1 266.2 153.3 266.7 152.4 266.7C151.1 266.6 150 265.5 150 264.1ZM150.6 263.7H154.5C154.3 262.7 153.5 262 152.6 262C151.5 262 150.7 262.7 150.6 263.7Z" fill="#263238"/>
<path d="M159.5 264C159.5 262.6 160.7 261.5 162.1 261.5C162.7 261.5 163.3 261.7 163.7 262.1C163.8 262.2 163.8 262.3 163.7 262.4C163.6 262.5 163.5 262.5 163.4 262.4C163 262.1 162.6 261.9 162.1 261.9C160.9 261.9 160 262.8 160 264C160 265.1 160.9 266.1 162.1 266.1C162.6 266.1 163.1 265.9 163.4 265.7C163.5 265.6 163.7 265.6 163.7 265.7C163.8 265.8 163.8 266 163.6 266.1C163.2 266.4 162.6 266.6 162 266.6C160.7 266.6 159.5 265.5 159.5 264Z" fill="#263238"/>
<path d="M170.1 261.8V266.4C170.1 266.5 170 266.7 169.8 266.7C169.7 266.7 169.5 266.6 169.5 266.4V265.6C169.1 266.2 168.4 266.6 167.6 266.6C166.3 266.6 165.2 265.4 165.2 264C165.2 262.6 166.3 261.4 167.6 261.4C168.4 261.4 169.1 261.8 169.5 262.4V261.6C169.5 261.5 169.6 261.3 169.8 261.3C170 261.5 170.1 261.6 170.1 261.8ZM169.6 264.1C169.6 263 168.7 262 167.7 262C166.7 262 165.8 262.9 165.8 264.1C165.8 265.2 166.7 266.2 167.7 266.2C168.8 266.1 169.6 265.2 169.6 264.1Z" fill="#263238"/>
<path d="M172.3 261.8C172.3 261.7 172.4 261.5 172.6 261.5C172.7 261.5 172.8 261.6 172.8 261.8V262.9C172.8 262.9 172.8 262.8 172.9 262.8C173.3 262.2 174 261.5 174.9 261.5C175 261.5 175.2 261.6 175.2 261.8C175.2 261.9 175.1 262 174.9 262C174.2 262 173.8 262.4 173.4 262.8C173.1 263.3 172.9 263.8 172.8 264V264.1V266.3C172.8 266.4 172.7 266.6 172.6 266.6C172.5 266.6 172.3 266.5 172.3 266.3V261.8Z" fill="#263238"/>
<path d="M180.7 265.6C180.3 266.2 179.5 266.6 178.7 266.6C177.3 266.6 176.2 265.5 176.2 264.1C176.2 262.7 177.3 261.5 178.7 261.5C179.5 261.5 180.2 261.9 180.7 262.5V259.6C180.7 259.5 180.8 259.4 181 259.4C181.1 259.4 181.3 259.5 181.3 259.6V264V264.1V266.4C181.3 266.5 181.2 266.7 181 266.7C180.9 266.7 180.7 266.6 180.7 266.4V265.6ZM180.7 264.2V264C180.7 262.9 179.8 262 178.7 262C177.6 262 176.7 262.9 176.7 264.1C176.7 265.2 177.6 266.1 178.7 266.1C179.8 266.1 180.7 265.2 180.7 264.2Z" fill="#263238"/>
<path d="M190.3 263.6C190.3 262.7 189.6 262 188.7 262C187.8 262 187.1 262.7 187.1 263.6V266.4C187.1 266.4 187.1 266.5 187 266.5C187 266.6 186.9 266.6 186.8 266.6H186.7C186.6 266.6 186.6 266.5 186.5 266.5V266.4V263.6V263.5V261.8C186.5 261.7 186.6 261.5 186.8 261.5C186.9 261.5 187 261.6 187 261.8V262.3C187.4 261.9 187.9 261.6 188.6 261.6C189.7 261.6 190.7 262.5 190.7 263.7V266.5C190.7 266.6 190.6 266.8 190.4 266.8C190.3 266.8 190.1 266.7 190.1 266.5V263.6H190.3Z" fill="#263238"/>
<path d="M193 261.7C193 261.6 193.1 261.5 193.3 261.5C193.4 261.5 193.6 261.6 193.6 261.7V264.5C193.6 265.4 194.3 266.1 195.2 266.1C196.1 266.1 196.8 265.4 196.8 264.5V261.7C196.8 261.6 196.9 261.5 197.1 261.5C197.2 261.5 197.4 261.6 197.4 261.7V264.5C197.4 265.6 196.5 266.6 195.3 266.6C194.2 266.6 193.2 265.7 193.2 264.5V261.7H193Z" fill="#263238"/>
<path d="M206.8 263.6C206.8 262.7 206.1 262 205.2 262C204.3 262 203.6 262.7 203.6 263.6V266.4C203.6 266.5 203.5 266.5 203.5 266.5H203.4C203.4 266.5 203.4 266.5 203.3 266.5V263.7C203.3 262.8 202.6 262.1 201.7 262.1C200.8 262.1 200.1 262.8 200.1 263.7V266.5C200.1 266.6 200.1 266.7 200 266.7C200 266.7 200 266.7 199.9 266.7C199.8 266.7 199.7 266.6 199.7 266.5V266.4V263.6V263.5V261.7C199.7 261.6 199.8 261.5 199.9 261.5C200 261.5 200.2 261.6 200.2 261.7V262.2C200.6 261.8 201.1 261.5 201.8 261.5C202.6 261.5 203.3 261.9 203.6 262.6C204 262 204.7 261.5 205.4 261.5C206.5 261.5 207.5 262.4 207.5 263.6V266.4C207.5 266.5 207.4 266.6 207.2 266.6C207.1 266.6 207 266.5 207 266.4V263.6H206.8Z" fill="#263238"/>
<path d="M209.4 264.2V264.1V264V259.6C209.4 259.5 209.5 259.4 209.6 259.4C209.7 259.4 209.9 259.5 209.9 259.6V262.5C210.3 261.9 211.1 261.5 211.9 261.5C213.3 261.5 214.4 262.6 214.4 264.1C214.4 265.5 213.3 266.6 211.9 266.6C211.1 266.6 210.4 266.2 209.9 265.6V266.3C209.9 266.4 209.8 266.6 209.6 266.6C209.5 266.6 209.4 266.5 209.4 266.3V264.2ZM209.9 264.1C209.9 265.2 210.8 266.1 211.9 266.1C213 266.1 213.9 265.2 213.9 264.1C213.9 263 213 262 211.9 262C210.8 262 210 262.9 209.9 264.1Z" fill="#263238"/>
<path d="M215.9 264.1C215.9 262.7 217 261.5 218.4 261.5C219.7 261.5 220.8 262.5 220.9 263.9C220.9 264 220.8 264.1 220.6 264.1H216.4C216.5 265.2 217.3 266.1 218.4 266.1C219.1 266.1 219.7 265.7 220 265.2C220.1 265.1 220.2 265.1 220.3 265.1C220.4 265.2 220.5 265.3 220.4 265.5C220 266.2 219.2 266.7 218.3 266.7C217 266.6 215.9 265.5 215.9 264.1ZM216.5 263.7H220.4C220.2 262.7 219.4 262 218.5 262C217.5 262 216.7 262.7 216.5 263.7Z" fill="#263238"/>
<path d="M222.4 261.8C222.4 261.7 222.5 261.5 222.7 261.5C222.8 261.5 222.9 261.6 222.9 261.8V262.9C222.9 262.9 222.9 262.8 223 262.8C223.4 262.2 224.1 261.5 225 261.5C225.1 261.5 225.2 261.6 225.2 261.8C225.2 261.9 225.1 262 225 262C224.3 262 223.9 262.4 223.5 262.8C223.2 263.3 223 263.8 222.9 264V264.1V266.3C222.9 266.4 222.8 266.6 222.7 266.6C222.6 266.6 222.4 266.5 222.4 266.3V261.8Z" fill="#263238"/>
<path opacity="0.5" d="M266.4 268.5H252.4C249.6 268.5 247.2 266.2 247.2 263.3V262.8C247.2 260 249.5 257.6 252.4 257.6H266.4C269.2 257.6 271.6 259.9 271.6 262.8V263.3C271.5 266.2 269.2 268.5 266.4 268.5Z" fill="#4A56E2"/>
<path d="M270.6 263.1C270.6 265.6 268.6 267.7 266 267.7C263.5 267.7 261.4 265.7 261.4 263.1C261.4 260.6 263.4 258.5 266 258.5C268.6 258.5 270.6 260.6 270.6 263.1Z" fill="#4A56E2"/>
<path d="M254.6 293.7H149.4C146.086 293.7 143.4 296.386 143.4 299.7V310.2C143.4 313.514 146.086 316.2 149.4 316.2H254.6C257.914 316.2 260.6 313.514 260.6 310.2V299.7C260.6 296.386 257.914 293.7 254.6 293.7Z" fill="#24CCA7"/>
<path d="M153.5 300.7C153.5 300.6 153.6 300.4 153.8 300.4H155.8C156.9 300.4 157.9 301.3 157.9 302.5C157.9 303.7 157 304.6 155.8 304.6H154V307.5C154 307.6 153.9 307.7 153.7 307.7C153.6 307.7 153.4 307.6 153.4 307.5V300.7H153.5ZM155.8 304.1C156.7 304.1 157.4 303.4 157.4 302.5C157.4 301.6 156.7 300.9 155.8 300.9H154V304.1H155.8Z" fill="white"/>
<path d="M159.5 302.9C159.5 302.8 159.6 302.7 159.8 302.7C159.9 302.7 160 302.8 160 302.9V304C160 304 160 303.9 160.1 303.9C160.5 303.3 161.2 302.6 162.1 302.6C162.2 302.6 162.4 302.7 162.4 302.8C162.4 302.9 162.3 303.1 162.1 303.1C161.4 303.1 161 303.5 160.6 303.9C160.3 304.4 160.1 304.9 160 305.1V305.2V307.4C160 307.5 159.9 307.6 159.8 307.6C159.7 307.6 159.5 307.5 159.5 307.4V302.9Z" fill="white"/>
<path d="M166 302.6C167.3 302.6 168.4 303.8 168.4 305.2C168.4 306.6 167.3 307.8 166 307.8C164.7 307.8 163.6 306.6 163.6 305.2C163.5 303.8 164.6 302.6 166 302.6ZM166 307.2C167 307.2 167.9 306.3 167.9 305.1C167.9 304 167 303 166 303C165 303 164.1 303.9 164.1 305.1C164.1 306.3 164.9 307.2 166 307.2Z" fill="white"/>
<path d="M170 305.2C170 303.8 171.2 302.7 172.6 302.7C173.2 302.7 173.8 302.9 174.2 303.3C174.3 303.4 174.3 303.5 174.2 303.6C174.1 303.7 174 303.7 173.9 303.6C173.5 303.3 173.1 303.1 172.6 303.1C171.4 303.1 170.5 304 170.5 305.2C170.5 306.3 171.4 307.3 172.6 307.3C173.1 307.3 173.6 307.1 173.9 306.9C174 306.8 174.2 306.8 174.2 306.9C174.3 307 174.3 307.2 174.1 307.3C173.7 307.6 173.1 307.8 172.5 307.8C171.1 307.7 170 306.6 170 305.2Z" fill="white"/>
<path d="M175.8 305.2C175.8 303.8 176.9 302.6 178.3 302.6C179.6 302.6 180.7 303.6 180.8 305C180.8 305.1 180.7 305.2 180.5 305.2H176.3C176.4 306.3 177.2 307.2 178.3 307.2C179 307.2 179.6 306.8 179.9 306.3C180 306.2 180.1 306.2 180.2 306.2C180.3 306.3 180.4 306.4 180.3 306.6C179.9 307.3 179.1 307.8 178.2 307.8C176.9 307.7 175.8 306.6 175.8 305.2ZM176.3 304.8H180.2C180 303.8 179.2 303.1 178.3 303.1C177.3 303.1 176.5 303.8 176.3 304.8Z" fill="white"/>
<path d="M182.1 305.2C182.1 303.8 183.2 302.6 184.6 302.6C185.9 302.6 187 303.6 187.1 305C187.1 305.1 187 305.2 186.8 305.2H182.6C182.7 306.3 183.5 307.2 184.6 307.2C185.3 307.2 185.9 306.8 186.2 306.3C186.3 306.2 186.4 306.2 186.5 306.2C186.6 306.3 186.7 306.4 186.6 306.6C186.2 307.3 185.4 307.8 184.5 307.8C183.2 307.7 182.1 306.6 182.1 305.2ZM182.7 304.8H186.6C186.4 303.8 185.6 303.1 184.7 303.1C183.6 303.1 182.8 303.8 182.7 304.8Z" fill="white"/>
<path d="M192.9 306.7C192.5 307.3 191.7 307.7 190.9 307.7C189.5 307.7 188.4 306.6 188.4 305.2C188.4 303.8 189.5 302.6 190.9 302.6C191.7 302.6 192.4 303 192.9 303.6V300.7C192.9 300.6 193 300.4 193.2 300.4C193.3 300.4 193.5 300.5 193.5 300.7V305.1V305.2V307.5C193.5 307.6 193.4 307.7 193.2 307.7C193.1 307.7 192.9 307.6 192.9 307.5V306.7ZM192.9 305.3V305.1C192.9 304 192 303.1 190.9 303.1C189.8 303.1 188.9 304 188.9 305.2C188.9 306.3 189.8 307.2 190.9 307.2C192 307.2 192.9 306.3 192.9 305.3Z" fill="white"/>
<path d="M200.7 302.9C200.7 303 200.6 303.2 200.4 303.2H199.7V306.9C199.7 307.2 200 307.3 200.1 307.3C200.2 307.3 200.4 307.4 200.4 307.6C200.4 307.7 200.3 307.8 200.1 307.8C199.6 307.8 199.2 307.4 199.2 306.9V303.2H198.6C198.3 303.2 198.3 303.1 198.3 302.9C198.3 302.8 198.3 302.6 198.6 302.6H199.2V300.7C199.2 300.6 199.3 300.4 199.5 300.4C199.6 300.4 199.8 300.5 199.8 300.7V302.6H200.5C200.5 302.6 200.7 302.7 200.7 302.9Z" fill="white"/>
<path d="M205.1 302.6C206.4 302.6 207.5 303.8 207.5 305.2C207.5 306.6 206.4 307.8 205.1 307.8C203.8 307.8 202.7 306.6 202.7 305.2C202.7 303.8 203.7 302.6 205.1 302.6ZM205.1 307.2C206.1 307.2 207 306.3 207 305.1C207 304 206.1 303 205.1 303C204.1 303 203.2 303.9 203.2 305.1C203.2 306.3 204 307.2 205.1 307.2Z" fill="white"/>
<path d="M212.2 305.2C212.2 303.8 213.4 302.7 214.8 302.7C215.4 302.7 216 302.9 216.4 303.3C216.5 303.4 216.5 303.5 216.4 303.6C216.3 303.7 216.2 303.7 216.1 303.6C215.7 303.3 215.3 303.1 214.8 303.1C213.6 303.1 212.7 304 212.7 305.2C212.7 306.3 213.6 307.3 214.8 307.3C215.3 307.3 215.8 307.1 216.1 306.9C216.2 306.8 216.4 306.8 216.4 306.9C216.5 307 216.5 307.2 216.3 307.3C215.9 307.6 215.3 307.8 214.7 307.8C213.4 307.7 212.2 306.6 212.2 305.2Z" fill="white"/>
<path d="M220.5 302.6C221.8 302.6 222.9 303.8 222.9 305.2C222.9 306.6 221.8 307.8 220.5 307.8C219.2 307.8 218.1 306.6 218.1 305.2C218.1 303.8 219.2 302.6 220.5 302.6ZM220.5 307.2C221.5 307.2 222.4 306.3 222.4 305.1C222.4 304 221.5 303 220.5 303C219.5 303 218.6 303.9 218.6 305.1C218.6 306.3 219.5 307.2 220.5 307.2Z" fill="white"/>
<path d="M228.5 304.7C228.5 303.8 227.8 303.1 226.9 303.1C226 303.1 225.3 303.8 225.3 304.7V307.5C225.3 307.5 225.3 307.6 225.2 307.6C225.2 307.7 225.1 307.7 225 307.7H224.9C224.8 307.7 224.8 307.6 224.7 307.6V307.5V304.7V304.6V302.9C224.7 302.8 224.8 302.7 224.9 302.7C225 302.7 225.1 302.8 225.1 302.9V303.4C225.5 303 226 302.7 226.7 302.7C227.8 302.7 228.8 303.6 228.8 304.8V307.6C228.8 307.7 228.7 307.8 228.5 307.8C228.4 307.8 228.3 307.7 228.3 307.6V304.7H228.5Z" fill="white"/>
<path d="M233.5 300.7C233.5 300.8 233.4 301 233.3 301C232.9 301 232.8 301.1 232.7 301.2C232.6 301.3 232.5 301.6 232.5 302V302.5H233.2C233.3 302.5 233.5 302.6 233.5 302.7C233.5 302.8 233.4 303 233.2 303H232.5V307.4C232.5 307.5 232.4 307.6 232.2 307.6C232.1 307.6 231.9 307.5 231.9 307.4V303H231.2C231.1 303 230.9 302.9 230.9 302.7C230.9 302.6 231 302.5 231.2 302.5H231.9V302C231.9 301.5 232 301.1 232.2 300.8C232.4 300.5 232.8 300.4 233.2 300.4C233.4 300.4 233.5 300.5 233.5 300.7Z" fill="white"/>
<path d="M235.1 301.2C235.1 301.1 235.2 300.9 235.4 300.9C235.5 300.9 235.7 301 235.7 301.2V301.4C235.7 301.5 235.6 301.7 235.4 301.7C235.3 301.7 235.1 301.6 235.1 301.4V301.2ZM235.1 302.9C235.1 302.8 235.2 302.6 235.4 302.6C235.5 302.6 235.7 302.7 235.7 302.9V307.5C235.7 307.6 235.6 307.7 235.4 307.7C235.3 307.7 235.1 307.6 235.1 307.5V302.9Z" fill="white"/>
<path d="M238 302.9C238 302.8 238.1 302.7 238.3 302.7C238.4 302.7 238.5 302.8 238.5 302.9V304C238.5 304 238.5 303.9 238.6 303.9C239 303.3 239.7 302.6 240.6 302.6C240.7 302.6 240.8 302.7 240.8 302.8C240.8 302.9 240.7 303.1 240.6 303.1C239.9 303.1 239.5 303.5 239.1 303.9C238.8 304.4 238.6 304.9 238.5 305.1V305.2V307.4C238.5 307.5 238.4 307.6 238.3 307.6C238.2 307.6 238 307.5 238 307.4V302.9Z" fill="white"/>
<path d="M249.9 304.7C249.9 303.8 249.2 303.1 248.3 303.1C247.4 303.1 246.7 303.8 246.7 304.7V307.5C246.7 307.6 246.6 307.6 246.6 307.6H246.5C246.5 307.6 246.5 307.6 246.4 307.6V304.8C246.4 303.9 245.7 303.2 244.8 303.2C243.9 303.2 243.2 303.9 243.2 304.8V307.6C243.2 307.7 243.2 307.8 243.1 307.8C243.1 307.8 243.1 307.8 243 307.8C242.9 307.8 242.8 307.7 242.8 307.6V307.5V304.7V304.6V302.8C242.8 302.7 242.9 302.6 243 302.6C243.1 302.6 243.3 302.7 243.3 302.8V303.3C243.7 302.9 244.2 302.6 244.9 302.6C245.7 302.6 246.4 303 246.7 303.7C247.1 303.1 247.8 302.6 248.5 302.6C249.6 302.6 250.6 303.5 250.6 304.7V307.5C250.6 307.6 250.5 307.7 250.3 307.7C250.2 307.7 250.1 307.6 250.1 307.5V304.7H249.9Z" fill="white"/>
<path d="M73.7 304.2H117.8C123.6 304.2 128.3 299.5 128.3 293.7V211.1C128.3 208.1 130.4 200.5 139.5 200.5H84.1C78.3 200.5 73.6 205.2 73.6 211V304.2H73.7Z" fill="#FFC727"/>
<path opacity="0.1" d="M73.7 304.2H117.8C123.6 304.2 128.3 299.5 128.3 293.7V211.1C128.3 208.1 130.4 200.5 139.5 200.5H84.1C78.3 200.5 73.6 205.2 73.6 211V304.2H73.7Z" fill="black"/>
<g opacity="0.1">
<path opacity="0.1" d="M121.3 211.1H81.7V212.9H121.3V211.1Z" fill="black"/>
<path opacity="0.1" d="M121.3 216.2H81.7V218H121.3V216.2Z" fill="black"/>
<path opacity="0.1" d="M121.3 221.3H81.7V223.1H121.3V221.3Z" fill="black"/>
<path opacity="0.1" d="M121.3 226.4H81.7V228.2H121.3V226.4Z" fill="black"/>
<path opacity="0.1" d="M121.3 231.5H81.7V233.3H121.3V231.5Z" fill="black"/>
<path opacity="0.1" d="M121.3 236.6H81.7V238.4H121.3V236.6Z" fill="black"/>
<path opacity="0.1" d="M121.3 241.7H81.7V243.5H121.3V241.7Z" fill="black"/>
<path opacity="0.1" d="M121.3 246.8H81.7V248.6H121.3V246.8Z" fill="black"/>
<path opacity="0.1" d="M121.3 252H81.7V253.8H121.3V252Z" fill="black"/>
<path opacity="0.1" d="M121.3 257.1H81.7V258.9H121.3V257.1Z" fill="black"/>
<path opacity="0.1" d="M121.3 262.2H81.7V264H121.3V262.2Z" fill="black"/>
<path opacity="0.1" d="M121.3 267.3H81.7V269.1H121.3V267.3Z" fill="black"/>
<path opacity="0.1" d="M121.3 272.4H81.7V274.2H121.3V272.4Z" fill="black"/>
<path opacity="0.1" d="M121.3 277.5H81.7V279.3H121.3V277.5Z" fill="black"/>
<path opacity="0.1" d="M121.3 282.6H81.7V284.4H121.3V282.6Z" fill="black"/>
<path opacity="0.1" d="M121.3 287.7H81.7V289.5H121.3V287.7Z" fill="black"/>
</g>
<path d="M31.1 269.3V369H64.5V369.1C64.5 374.9 69.1 379.6 74.9 379.7H75.3C75.7 379.7 76 379.7 76.4 379.6L78.4 379.2C78.9 379 79.4 378.8 79.8 378.6C80 378.5 80.3 378.4 80.5 378.2C80.6 378.1 80.7 378.1 80.8 378C81.1 377.8 81.4 377.6 81.7 377.4L81.8 377.3C82 377.1 82.2 377 82.4 376.8C82.5 376.7 82.6 376.6 82.7 376.5C83.9 375.3 84.8 373.8 85.3 372.2V372.1C85.4 371.8 85.4 371.6 85.5 371.3C85.6 371 85.6 370.6 85.7 370.3C85.7 370.1 85.7 370 85.7 369.8C85.7 369.7 85.7 369.7 85.7 369.6C85.7 369.4 85.7 369.2 85.7 369V269.2C85.7 266.2 87.8 258.6 96.9 258.6H41.6C35.8 258.8 31.1 263.5 31.1 269.3Z" fill="#FFC727"/>
<g opacity="0.1">
<path opacity="0.1" d="M78 265.4H38.4V267.2H78V265.4Z" fill="black"/>
<path opacity="0.1" d="M81.7 260.7H42.1V262.5H81.7V260.7Z" fill="black"/>
<path opacity="0.1" d="M78 270.5H38.4V272.3H78V270.5Z" fill="black"/>
<path opacity="0.1" d="M78 275.6H38.4V277.4H78V275.6Z" fill="black"/>
<path opacity="0.1" d="M78 280.8H38.4V282.6H78V280.8Z" fill="black"/>
<path opacity="0.1" d="M78 285.9H38.4V287.7H78V285.9Z" fill="black"/>
<path opacity="0.1" d="M78 291H38.4V292.8H78V291Z" fill="black"/>
<path opacity="0.1" d="M78 296.1H38.4V297.9H78V296.1Z" fill="black"/>
<path opacity="0.1" d="M78 301.2H38.4V303H78V301.2Z" fill="black"/>
<path opacity="0.1" d="M78 306.3H38.4V308.1H78V306.3Z" fill="black"/>
<path opacity="0.1" d="M78 311.4H38.4V313.2H78V311.4Z" fill="black"/>
<path opacity="0.1" d="M78 316.5H38.4V318.3H78V316.5Z" fill="black"/>
<path opacity="0.1" d="M78 321.7H38.4V323.5H78V321.7Z" fill="black"/>
<path opacity="0.1" d="M78 326.8H38.4V328.6H78V326.8Z" fill="black"/>
<path opacity="0.1" d="M78 331.9H38.4V333.7H78V331.9Z" fill="black"/>
<path opacity="0.1" d="M78 337H38.4V338.8H78V337Z" fill="black"/>
<path opacity="0.1" d="M78 342.1H38.4V343.9H78V342.1Z" fill="black"/>
<path opacity="0.1" d="M78 347.2H38.4V349H78V347.2Z" fill="black"/>
<path opacity="0.1" d="M78 352.3H38.4V354.1H78V352.3Z" fill="black"/>
<path opacity="0.1" d="M78 359.7H58.2V363.9H78V359.7Z" fill="black"/>
</g>
<path d="M117.5 304.2C117.6 304.2 117.7 304.2 117.8 304.2C118.2 304.2 118.6 304.2 119 304.1C118.6 304.1 118.3 304.2 117.9 304.2H117.5Z" fill="#FFC727"/>
<path d="M139 200.5C133.1 200.5 128.4 205.3 128.4 211.1V231.1H149.6V211.1C149.6 205.3 144.8 200.5 139 200.5Z" fill="#FFC727"/>
<path opacity="0.2" d="M139 200.5C133.1 200.5 128.4 205.3 128.4 211.1V231.1H149.6V211.1C149.6 205.3 144.8 200.5 139 200.5Z" fill="black"/>
<path d="M85.7 269.4V304.3H106.9H117.3C111.6 304.2 106.9 299.5 106.9 293.7V269.4C106.9 263.5 102.1 258.8 96.3 258.8C93.4 258.8 90.7 260 88.8 261.9C86.9 263.8 85.7 266.4 85.7 269.4Z" fill="#FFC727"/>
<path opacity="0.2" d="M85.7 269.4V304.3H106.9H117.3C111.6 304.2 106.9 299.5 106.9 293.7V269.4C106.9 263.5 102.1 258.8 96.3 258.8C93.4 258.8 90.7 260 88.8 261.9C86.9 263.8 85.7 266.4 85.7 269.4Z" fill="black"/>
<path d="M15.6 369V369.1C15.6 374.9 20.2 379.6 26 379.7H74.9C69.2 379.6 64.5 374.9 64.5 369.1V369H15.6Z" fill="#FFC727"/>
<path opacity="0.2" d="M15.6 369V369.1C15.6 374.9 20.2 379.6 26 379.7H74.9C69.2 379.6 64.5 374.9 64.5 369.1V369H15.6Z" fill="black"/>
</svg>
